<svg width="24" height="24" viewBox="0 0 24 24" fill="none" xmlns="http://www.w3.org/2000/svg">
<path d="M20.4375 11.1094H6.72423L14.932 3.98438C15.0633 3.86953 14.9836 3.65625 14.8102 3.65625H12.7359C12.6445 3.65625 12.5578 3.68906 12.4899 3.74766L3.63282 11.4328C3.5517 11.5031 3.48664 11.5901 3.44205 11.6877C3.39747 11.7854 3.37439 11.8915 3.37439 11.9988C3.37439 12.1062 3.39747 12.2123 3.44205 12.3099C3.48664 12.4076 3.5517 12.4945 3.63282 12.5648L12.5414 20.2969C12.5766 20.3273 12.6188 20.3438 12.6633 20.3438H14.8078C14.9813 20.3438 15.0609 20.1281 14.9297 20.0156L6.72423 12.8906H20.4375C20.5406 12.8906 20.625 12.8062 20.625 12.7031V11.2969C20.625 11.1937 20.5406 11.1094 20.4375 11.1094Z" fill="#737171"/>
</svg>
