<svg width="186" height="186" viewBox="0 0 186 186" fill="none" xmlns="http://www.w3.org/2000/svg">
<g filter="url(#filter0_d_998_3329)">
<rect x="55" y="55.001" width="76" height="76" rx="38" fill="white"/>
<path d="M100.976 89.5582C101.872 89.5582 102.316 88.4695 101.675 87.8429L90.752 77.1703C90.3505 76.778 90.3505 76.1321 90.752 75.7398L92.8561 73.6839C93.2447 73.3042 93.8653 73.3042 94.2539 73.6839L112.268 91.2857C112.67 91.678 112.67 92.3239 112.268 92.7162L94.2539 110.318C93.8653 110.698 93.2447 110.698 92.8561 110.318L90.752 108.262C90.3505 107.87 90.3505 107.224 90.752 106.832L101.675 96.159C102.316 95.5325 101.872 94.4438 100.976 94.4438H74C73.4477 94.4438 73 93.996 73 93.4438V90.5582C73 90.0059 73.4477 89.5582 74 89.5582H100.976Z" fill="#00A9A5"/>
</g>
<defs>
<filter id="filter0_d_998_3329" x="0" y="0.000976562" width="186" height="186" filterUnits="userSpaceOnUse" color-interpolation-filters="sRGB">
<feFlood flood-opacity="0" result="BackgroundImageFix"/>
<feColorMatrix in="SourceAlpha" type="matrix" values="0 0 0 0 0 0 0 0 0 0 0 0 0 0 0 0 0 0 127 0" result="hardAlpha"/>
<feMorphology radius="1" operator="dilate" in="SourceAlpha" result="effect1_dropShadow_998_3329"/>
<feOffset/>
<feGaussianBlur stdDeviation="27"/>
<feColorMatrix type="matrix" values="0 0 0 0 0 0 0 0 0 0.104254 0 0 0 0 0.1125 0 0 0 0.25 0"/>
<feBlend mode="normal" in2="BackgroundImageFix" result="effect1_dropShadow_998_3329"/>
<feBlend mode="normal" in="SourceGraphic" in2="effect1_dropShadow_998_3329" result="shape"/>
</filter>
</defs>
</svg>
