<svg width="590" height="1024" viewBox="0 0 590 1024" fill="none" xmlns="http://www.w3.org/2000/svg">
<g opacity="0.6">
<path d="M902 1269.94L902 -232L0.00012207 -232L5.64183e-05 1269.94L902 1269.94Z" fill="white"/>
<path d="M261.368 195.879L225.188 195.879L225.188 -18.0604L450.376 -18.0604L450.376 6.26509C451 111.052 366.165 195.879 261.368 195.879Z" fill="#00A9A5"/>
<path d="M565.154 517.101L565.154 409.819C627.533 409.819 678.06 457.846 678.06 517.101L565.154 517.101Z" fill="#DD1515"/>
<path d="M452.248 88.5977L565.154 88.5977C565.154 147.852 514.627 195.879 452.248 195.879L452.248 88.5977Z" fill="#DD1515"/>
<path d="M0.000168879 88.5977C0.000166289 147.848 50.5499 195.879 112.906 195.879C175.262 195.879 225.812 147.848 225.812 88.5978C225.812 29.3477 175.262 -18.684 112.906 -18.684C50.5499 -18.684 0.000171469 29.3477 0.000168879 88.5977Z" fill="#F9851B"/>
<path d="M451 195.879L451 409.819L338.718 303.161L451 195.879Z" fill="#F9851B"/>
<path d="M451 -18.0604L676.812 -18.0604L676.812 195.879L451 -18.0604Z" fill="#DD1515"/>
<path d="M112.906 303.161L225.812 195.879L338.718 303.161L225.812 409.819L112.906 303.161Z" fill="#DD1515"/>
<path d="M613.185 409.819L553.302 195.879L516.498 195.879L577.006 409.819L613.185 409.819Z" fill="#00A9A5"/>
<path d="M547.687 409.819L487.18 195.879L451 195.879L511.508 409.819L547.687 409.819Z" fill="#00A9A5"/>
<path d="M678.06 409.819L617.552 195.879L581.372 195.879L641.256 409.819L678.06 409.819Z" fill="#00A9A5"/>
<path d="M270.725 345.575L270.725 260.747L181.523 260.747L181.523 345.575L270.725 345.575Z" fill="#5975FF"/>
<path d="M640.632 842.065L676.812 842.065L676.812 1056L451.624 1056L451.624 1031.68C451 926.892 535.836 842.065 640.632 842.065Z" fill="#00A9A5"/>
<path d="M337.47 520.843L337.47 628.125C275.092 628.125 224.565 580.098 224.565 520.843L337.47 520.843Z" fill="#DD1515"/>
<path d="M0.624001 305.032L113.53 305.032C113.53 364.287 63.0031 412.314 0.623996 412.314L0.624001 305.032Z" fill="#005452"/>
<path d="M449.752 520.843L336.847 520.843C336.847 461.589 387.374 413.561 449.753 413.561L449.752 520.843Z" fill="#DD1515"/>
<path d="M449.753 948.723L336.847 948.723C336.847 889.468 387.374 841.441 449.753 841.441L449.753 948.723Z" fill="#DD1515"/>
<path d="M563.906 520.843C626.285 520.843 676.812 568.87 676.812 628.125L451.624 628.125C451 568.87 501.527 520.843 563.906 520.843Z" fill="#005452"/>
<path d="M112.906 518.972C112.906 459.718 163.433 411.69 225.812 411.69L225.812 625.63C163.433 625.63 112.906 578.226 112.906 518.972Z" fill="#00A9A5"/>
<path d="M0.000262339 733.535C0.000259749 792.786 50.55 840.817 112.906 840.817C175.263 840.817 225.812 792.786 225.812 733.535C225.812 674.285 175.263 626.254 112.906 626.254C50.55 626.254 0.000264929 674.285 0.000262339 733.535Z" fill="#DD1515"/>
<path d="M56.7652 733.535C56.7652 763.16 81.9005 787.176 112.906 787.176C143.912 787.176 169.047 763.16 169.047 733.535C169.047 703.91 143.912 679.894 112.906 679.894C81.9005 679.894 56.7653 703.91 56.7652 733.535Z" fill="#5975FF"/>
<path d="M451 842.065L451 627.501L563.906 734.783L451 842.065Z" fill="#F9851B"/>
<path d="M451 1056L225.812 1056L225.812 842.065L451 1056Z" fill="#DD1515"/>
<path d="M225.812 913.17L225.812 1056L75.4788 1056L225.812 913.17Z" fill="#005452"/>
<path d="M150.334 842.065L150.334 984.275L0.623971 984.275L150.334 842.065Z" fill="#005452"/>
<path d="M789.094 734.783L676.812 841.441L563.906 734.783L676.812 628.125L789.094 734.783Z" fill="#DD1515"/>
<path d="M288.815 627.501L349.322 842.065L385.502 842.065L325.619 627.501L288.815 627.501Z" fill="#00A9A5"/>
<path d="M354.313 627.501L414.82 842.065L451 842.065L391.117 627.501L354.313 627.501Z" fill="#00A9A5"/>
<path d="M224.565 627.501L285.072 842.065L321.252 842.065L260.744 627.501L224.565 627.501Z" fill="#00A9A5"/>
<path d="M112.906 625.63L112.906 413.561L0.000305176 413.561L0.000295906 625.63L112.906 625.63Z" fill="#F9851B"/>
</g>
</svg>
