<svg width="20" height="20" viewBox="0 0 20 20" fill="none" xmlns="http://www.w3.org/2000/svg">
<path d="M10 20C4.477 20 0 15.523 0 10C0 4.477 4.477 0 10 0C15.523 0 20 4.477 20 10C20 15.523 15.523 20 10 20ZM10 18C12.1217 18 14.1566 17.1571 15.6569 15.6569C17.1571 14.1566 18 12.1217 18 10C18 7.87827 17.1571 5.84344 15.6569 4.34315C14.1566 2.84285 12.1217 2 10 2C7.87827 2 5.84344 2.84285 4.34315 4.34315C2.84285 5.84344 2 7.87827 2 10C2 12.1217 2.84285 14.1566 4.34315 15.6569C5.84344 17.1571 7.87827 18 10 18ZM9 13H11V15H9V13ZM11 11.355V12H9V10.5C9 10.2348 9.10536 9.98043 9.29289 9.79289C9.48043 9.60536 9.73478 9.5 10 9.5C10.2841 9.49998 10.5623 9.4193 10.8023 9.26733C11.0423 9.11536 11.2343 8.89837 11.3558 8.64158C11.4773 8.3848 11.5234 8.0988 11.4887 7.81684C11.454 7.53489 11.34 7.26858 11.1598 7.04891C10.9797 6.82924 10.7409 6.66523 10.4712 6.57597C10.2015 6.48671 9.91204 6.47587 9.63643 6.54471C9.36081 6.61354 9.11042 6.75923 8.91437 6.96482C8.71832 7.1704 8.58468 7.42743 8.529 7.706L6.567 7.313C6.68863 6.70508 6.96951 6.14037 7.38092 5.67659C7.79233 5.2128 8.31952 4.86658 8.90859 4.67332C9.49766 4.48006 10.1275 4.44669 10.7337 4.57661C11.3399 4.70654 11.9007 4.99511 12.3588 5.41282C12.8169 5.83054 13.1559 6.36241 13.3411 6.95406C13.5263 7.54572 13.5511 8.17594 13.4129 8.78031C13.2747 9.38467 12.9785 9.9415 12.5545 10.3939C12.1306 10.8462 11.5941 11.1779 11 11.355Z" fill="#424242"/>
</svg>
