<svg width="19" height="22" viewBox="0 0 19 22" fill="none" xmlns="http://www.w3.org/2000/svg">
<path d="M9.3576 2C8.56195 2 7.79889 2.31607 7.23628 2.87868C6.67367 3.44129 6.3576 4.20435 6.3576 5V9C6.3576 9.79565 6.67367 10.5587 7.23628 11.1213C7.79889 11.6839 8.56195 12 9.3576 12C10.1532 12 10.9163 11.6839 11.4789 11.1213C12.0415 10.5587 12.3576 9.79565 12.3576 9V5C12.3576 4.20435 12.0415 3.44129 11.4789 2.87868C10.9163 2.31607 10.1532 2 9.3576 2ZM9.3576 0C10.0142 0 10.6644 0.129329 11.271 0.380602C11.8776 0.631876 12.4288 1.00017 12.8931 1.46447C13.3574 1.92876 13.7257 2.47995 13.977 3.08658C14.2283 3.69321 14.3576 4.34339 14.3576 5V9C14.3576 10.3261 13.8308 11.5979 12.8931 12.5355C11.9554 13.4732 10.6837 14 9.3576 14C8.03152 14 6.75975 13.4732 5.82206 12.5355C4.88438 11.5979 4.3576 10.3261 4.3576 9V5C4.3576 3.67392 4.88438 2.40215 5.82206 1.46447C6.75975 0.526784 8.03152 0 9.3576 0ZM0.412598 10H2.4276C2.66989 11.6648 3.50347 13.1867 4.77583 14.2873C6.04819 15.3879 7.67428 15.9936 9.3566 15.9936C11.0389 15.9936 12.665 15.3879 13.9374 14.2873C15.2097 13.1867 16.0433 11.6648 16.2856 10H18.3016C18.0742 12.0287 17.1642 13.9199 15.7208 15.3635C14.2774 16.8071 12.3863 17.7174 10.3576 17.945V22H8.3576V17.945C6.32873 17.7176 4.43738 16.8074 2.99377 15.3638C1.55017 13.9202 0.64001 12.0289 0.412598 10Z" fill="#424242"/>
</svg>
