<svg width="19" height="19" viewBox="0 0 19 19" fill="none" xmlns="http://www.w3.org/2000/svg">
<path d="M14.5625 13.117L18.3576 16.9112L17.1038 18.165L13.3096 14.3699C11.8978 15.5017 10.1418 16.1172 8.33242 16.1146C3.93033 16.1146 0.35762 12.5419 0.35762 8.13984C0.35762 3.73775 3.93033 0.165039 8.33242 0.165039C12.7345 0.165039 16.3072 3.73775 16.3072 8.13984C16.3098 9.94923 15.6942 11.7052 14.5625 13.117ZM12.785 12.4595C13.9096 11.3031 14.5376 9.7529 14.535 8.13984C14.535 4.71245 11.7589 1.93722 8.33242 1.93722C4.90503 1.93722 2.1298 4.71245 2.1298 8.13984C2.1298 11.5663 4.90503 14.3425 8.33242 14.3425C9.94548 14.345 11.4957 13.717 12.6521 12.5924L12.785 12.4595Z" fill="#A6A6A6"/>
</svg>
