<svg width="105" height="32" viewBox="0 0 105 32" fill="none" xmlns="http://www.w3.org/2000/svg">
<path d="M13.6526 0.682723C13.6526 0.755343 13.8995 1.37988 14.219 2.10608C14.7274 3.268 15.3519 4.73493 16.5138 7.47997C16.7172 7.95926 16.9931 8.61284 17.1384 8.93237C17.2691 9.2519 17.545 9.89096 17.7338 10.3412V10.3412C17.9448 10.8511 18.4423 11.1836 18.9941 11.1836H19.8979H20.8018C21.3536 11.1836 21.851 10.8511 22.062 10.3412V10.3412C22.2508 9.89096 22.4977 9.30999 22.5994 9.07761C22.6865 8.8307 22.977 8.17712 23.2094 7.62521C23.4563 7.05877 23.9211 5.95494 24.2551 5.15612C24.9523 3.50038 24.9378 3.51491 25.6349 1.97536C25.9109 1.35083 26.1432 0.784391 26.1432 0.711771V0.711771C26.1432 0.639579 26.0847 0.581055 26.0125 0.581055H24.3568H23.7614C23.033 0.581055 22.3776 1.02368 22.1056 1.6994V1.6994C21.8587 2.32394 21.4229 3.38419 21.1325 4.06682C20.842 4.74945 20.4934 5.57732 20.3627 5.91137C20.232 6.25995 20.0867 6.53591 20.0432 6.53591C19.9996 6.53591 19.8108 6.15828 19.6365 5.69351C19.4477 5.24327 19.1427 4.50254 18.9539 4.06682C18.5327 3.06466 17.9662 1.67036 17.7193 1.04582V1.04582C17.6145 0.766262 17.3472 0.581055 17.0487 0.581055H15.5988C14.524 0.581055 13.6526 0.624627 13.6526 0.682723Z" fill="#6C6666"/>
<path d="M30.1548 1.64081C29.8934 2.26534 29.5303 3.09321 29.356 3.49989C29.051 4.16799 27.5405 7.62471 26.7126 9.52736C26.5238 9.96308 26.3059 10.4424 26.2333 10.5731C26.1462 10.7183 26.0881 10.8926 26.0881 10.9798V10.9798C26.0881 11.06 26.1531 11.125 26.2333 11.125H27.9036H29.0108C29.4482 11.125 29.8425 10.8612 30.0096 10.4569V10.4569C30.1693 10.0938 30.3 9.70165 30.3 9.58545V9.58545C30.3 9.47315 30.3911 9.38212 30.5034 9.38212H32.3915H33.5403C34.0978 9.38212 34.596 9.73011 34.788 10.2536V10.2536V10.2536C34.9799 10.777 35.4781 11.125 36.0357 11.125H37.0101H38.696C38.7935 11.125 38.8606 11.0272 38.8256 10.9362V10.9362C38.7095 10.6312 37.838 8.61234 37.5621 8.00233C37.4168 7.68281 36.8504 6.40469 36.3275 5.17015C35.7901 3.93561 35.1946 2.58487 35.0203 2.19272C34.8461 1.78605 34.5992 1.24866 34.4975 0.98723V0.98723C34.374 0.704895 34.095 0.522461 33.7868 0.522461H32.4641H31.8711C31.128 0.522461 30.455 0.961031 30.1548 1.64081V1.64081ZM32.8998 5.32991C32.9485 5.45873 32.9949 5.58417 33.0377 5.70277C33.2451 6.27718 32.9865 6.6316 32.377 6.5935V6.5935V6.5935C31.9463 6.57197 31.6616 6.13709 31.8141 5.73378L31.9558 5.35896C32.2027 4.69086 32.4205 4.15347 32.4351 4.15347C32.4496 4.15347 32.6529 4.69086 32.8998 5.32991Z" fill="#6C6666"/>
<path d="M40.7864 5.80921V9.3095C40.7864 10.3122 41.5993 11.125 42.6019 11.125V11.125H43.0958C43.8257 11.125 44.4174 10.5333 44.4174 9.80331V9.80331V8.97742C44.4174 8.71898 44.6394 8.51633 44.8967 8.53972V8.53972V8.53972C45.191 8.56731 45.4576 8.725 45.6235 8.96964L46.2184 9.84689V9.84689C46.7637 10.6466 47.6689 11.125 48.6368 11.125H49.0216C50.0818 11.125 50.9533 11.0814 50.9533 11.0379C50.9533 10.9943 50.7935 10.7474 50.6047 10.5005C50.4159 10.239 49.922 9.55641 49.5154 8.96092L49.042 8.25089C48.9046 8.04476 48.9682 7.76553 49.1813 7.63923V7.63923C49.8204 7.24709 50.3432 6.52088 50.5902 5.72206C50.8661 4.778 50.8661 4.25514 50.5756 3.29655L50.5687 3.27258C50.4299 2.7913 50.184 2.34766 49.8494 1.97486V1.97486C49.5589 1.65534 48.9635 1.21961 48.5132 1.00175V1.00175C47.9682 0.734006 47.3703 0.591093 46.7631 0.583407L44.2432 0.551509V0.551509C42.3412 0.527534 40.7864 2.06277 40.7864 3.96493V5.80921ZM46.1603 3.36917V3.36917C46.4573 3.43412 46.7149 3.61732 46.8737 3.87647L46.9011 3.92108L46.9835 4.05562C47.1079 4.25857 47.1511 4.50101 47.1044 4.73443V4.73443C47.0608 4.93776 46.8575 5.24277 46.6541 5.41706V5.41706C46.4206 5.63188 46.1149 5.75111 45.7977 5.75111H45.347V5.75111C44.8336 5.75111 44.4174 5.33494 44.4174 4.82157V4.51657V3.92108C44.4174 3.56814 44.7036 3.28203 45.0565 3.28203V3.28203C45.4051 3.28203 45.8989 3.3256 46.1603 3.36917Z" fill="#6C6666"/>
<path d="M55.7752 0.333649C55.2524 0.522462 54.5552 0.885562 54.2212 1.16152V1.16152C53.8317 1.47496 53.521 1.87997 53.3207 2.33796V2.33796L53.2617 2.47561C53.0994 2.85435 53.0157 3.26212 53.0157 3.67418V3.67418C53.0302 4.50204 53.4514 5.41706 54.0469 5.85278C54.6714 6.31755 55.8333 6.75327 57.2567 7.05827C57.8812 7.18899 58.5348 7.42137 58.7091 7.56661L58.7898 7.63327C58.9256 7.7455 58.9354 7.95034 58.8107 8.07495V8.07495C58.68 8.20567 58.3169 8.35091 57.9829 8.39448V8.39448C57.5983 8.44255 57.2084 8.42546 56.8295 8.34393L56.2545 8.2202C55.63 8.08948 54.9038 7.84257 54.6278 7.69733C54.3519 7.53757 54.0904 7.46495 54.0178 7.52304C53.9597 7.58114 53.6692 8.19115 53.3788 8.85925L52.9358 9.86495C52.8821 9.98676 52.9291 10.1294 53.0447 10.1955V10.1955C53.1464 10.2681 53.7564 10.5005 54.3954 10.7183V10.7183C55.1649 10.978 55.9716 11.1105 56.7837 11.1105H57.4455L58.2814 11.1169C58.9733 11.1222 59.6569 10.9658 60.2777 10.6602V10.6602C60.8005 10.4133 61.3234 10.1083 61.4541 10.0067C61.5703 9.90498 61.8463 9.55641 62.0641 9.23688V9.23688C62.3197 8.85823 62.4563 8.41182 62.4563 7.95499V7.55209V7.31315C62.4563 6.75533 62.2552 6.21622 61.8898 5.79468V5.79468V5.79468C61.5081 5.36519 61.0292 5.03315 60.4931 4.82623L60.481 4.82157C60.0308 4.64728 59.1593 4.4149 58.5493 4.28418C57.9538 4.15347 57.2712 3.96466 57.0388 3.84846L56.8531 3.749C56.7213 3.67836 56.6497 3.53101 56.6757 3.38369V3.38369C56.7048 3.25298 56.879 3.06417 57.0824 2.94797V2.94797C57.3195 2.82469 57.5869 2.77202 57.8531 2.79621L58.2443 2.83178C58.68 2.87535 59.4062 3.03512 59.8419 3.18036C60.2777 3.34012 60.7279 3.48536 60.8296 3.51441V3.51441C60.9277 3.54712 61.0344 3.49828 61.0738 3.40263L61.5122 2.33796C61.8027 1.65534 61.9915 1.0308 61.9625 0.943659C61.9334 0.856514 61.4541 0.638654 60.9022 0.449842V0.449842C60.2472 0.228313 59.5636 0.103027 58.8727 0.0779015L58.3169 0.057693L57.72 0.0359882C57.0588 0.0119435 56.399 0.112932 55.7752 0.333649V0.333649Z" fill="#6C6666"/>
<path d="M64.3444 5.82373V9.3095C64.3444 10.3122 65.1572 11.125 66.1599 11.125V11.125V11.125C67.1625 11.125 67.9754 10.3122 67.9754 9.3095V5.82373V2.33796C67.9754 1.33529 67.1625 0.522461 66.1599 0.522461V0.522461V0.522461C65.1572 0.522461 64.3444 1.33529 64.3444 2.33796V5.82373Z" fill="#6C6666"/>
<path d="M70.8773 1.96084V1.96084C70.8773 2.72287 71.495 3.34062 72.257 3.34062H72.4023V3.34062C73.2445 3.34062 73.9273 4.0234 73.9273 4.86564V7.26211V9.29547C73.9273 10.3383 74.7726 11.1836 75.8154 11.1836V11.1836V11.1836C76.8582 11.1836 77.7036 10.3383 77.7036 9.29547V7.26211V4.86564C77.7036 4.0234 78.3863 3.34062 79.2286 3.34062V3.34062H79.3738C80.1358 3.34062 80.7536 2.72287 80.7536 1.96084V1.96084V1.96084C80.7536 1.1988 80.1358 0.581055 79.3738 0.581055H75.8154H72.257C71.495 0.581055 70.8773 1.1988 70.8773 1.96084V1.96084Z" fill="#6C6666"/>
<path d="M81.9039 0.98723C82.3251 1.69891 83.9808 4.48752 84.1406 4.73443C84.2132 4.85062 84.5618 5.44611 84.9249 6.04159V6.04159C85.3524 6.74457 85.5785 7.55151 85.5785 8.37427V9.12068V9.3095C85.5785 10.3122 86.3913 11.125 87.394 11.125V11.125V11.125C88.3966 11.125 89.2095 10.3122 89.2095 9.3095V9.22235V7.93553C89.2095 7.54538 89.337 7.16592 89.5726 6.85494V6.85494C89.7759 6.5935 89.9357 6.31755 89.9357 6.2304C89.9357 6.14326 90.0519 5.9254 90.1971 5.73659C90.3423 5.54777 90.6183 5.09753 90.8216 4.73443C91.0105 4.37133 91.3155 3.87751 91.4897 3.6306C91.6786 3.38369 91.8238 3.15131 91.8238 3.10774C91.8238 3.06417 92.1578 2.4832 92.5645 1.8151V1.8151C92.8895 1.2691 92.5066 0.575146 91.8714 0.558996L91.5769 0.551509L90.2349 0.517392C90.0006 0.511435 89.7771 0.615416 89.6307 0.798418V0.798418C89.5 0.958182 89.0207 1.74248 88.5559 2.5413C88.1056 3.35465 87.6699 4.00823 87.5973 4.00823C87.5247 4.00823 87.394 3.86299 87.3213 3.67417C87.2487 3.49989 87.0163 3.09321 86.813 2.77369C86.6242 2.45416 86.3192 1.93129 86.1449 1.61176C85.9706 1.29223 85.7382 0.91461 85.6075 0.76937V0.76937C85.469 0.612386 85.2697 0.522461 85.0604 0.522461H83.5015H82.1684C81.9299 0.522461 81.7821 0.78213 81.9039 0.98723V0.98723Z" fill="#6C6666"/>
<path d="M91.4927 14.2771C84.7971 14.3207 58.7119 14.5821 44.7253 14.7564C38.2185 14.8436 26.3814 14.9743 18.4368 15.0469L3.9854 15.1922L2.1699 15.3519L0.354394 15.5117L0.165582 15.7441C-0.0668024 16.0491 -0.0522784 16.8188 0.19463 17.1674L0.397966 17.4434L6.70139 17.5015C12.4674 17.545 23.2733 17.4579 55.2552 17.0803C61.7329 16.9931 75.2838 16.8769 85.3926 16.7898L103.765 16.6446L104.172 16.4703C104.579 16.3105 105 15.7005 105 15.2648C105 15.1341 104.811 14.8291 104.579 14.5967L104.158 14.1755L100.178 14.2045C97.9994 14.2336 94.0925 14.2626 91.4927 14.2771Z" fill="#6C6666"/>
<path d="M26.0663 20.8344C26.0663 20.936 26.5746 22.156 27.5187 24.3637C28.1868 25.9323 29.1889 28.2852 29.6973 29.5197C29.8395 29.8673 29.9859 30.1976 30.1017 30.4384C30.2249 30.6948 30.4235 30.9345 30.4235 31.219V31.219V31.219C30.4235 31.3634 30.5405 31.4805 30.6849 31.4805H32.3116H33.9383C34.0827 31.4805 34.1997 31.3634 34.1997 31.219V31.219C34.1997 31.0738 34.2578 30.8995 34.3159 30.8124C34.374 30.7397 34.65 30.1588 34.9114 29.5197C35.1874 28.8807 35.7102 27.6316 36.0879 26.7602C36.4655 25.8742 36.9884 24.6397 37.2498 24.0006C37.5112 23.3615 37.9179 22.4175 38.1357 21.9091C38.3681 21.4008 38.5569 20.936 38.5569 20.8634V20.8634C38.5569 20.7912 38.4984 20.7327 38.4262 20.7327H36.756H35.2717C35.0761 20.7327 34.9048 20.8636 34.8533 21.0522V21.0522C34.7952 21.241 34.3014 22.461 33.7495 23.7827C33.1831 25.1044 32.6747 26.339 32.5876 26.5423V26.5423C32.5335 26.6721 32.3499 26.6726 32.295 26.5432L32.0792 26.034C31.8904 25.5547 31.324 24.1604 30.8302 22.9403L30.6691 22.5389C30.2312 21.4478 29.1737 20.7327 27.998 20.7327V20.7327C26.9377 20.7327 26.0663 20.7763 26.0663 20.8344Z" fill="#6C6666"/>
<path d="M40.4451 26.1066V29.665C40.4451 30.6676 41.2579 31.4805 42.2606 31.4805V31.4805V31.4805C43.2632 31.4805 44.0761 30.6676 44.0761 29.665V26.1066V22.5482C44.0761 21.5455 43.2632 20.7327 42.2606 20.7327V20.7327V20.7327C41.2579 20.7327 40.4451 21.5455 40.4451 22.5482V26.1066Z" fill="#6C6666"/>
<path d="M45.9642 26.1066V29.665C45.9642 30.6676 46.777 31.4805 47.7797 31.4805V31.4805V31.4805C48.786 31.4805 49.6052 30.6713 49.6176 29.6651L49.6242 29.1276L49.6363 28.4793C49.6472 27.8929 50.3792 27.6334 50.7571 28.0818V28.0818C51.3526 28.7935 51.9916 29.5342 52.1659 29.7231C52.3547 29.9119 52.7324 30.3766 53.0374 30.7688V30.7688C53.3758 31.217 53.9049 31.4805 54.4665 31.4805H55.0707V31.4805C55.8969 31.4805 56.5667 30.8107 56.5667 29.9845V26.1066V22.4756C56.5667 21.513 55.7864 20.7327 54.8238 20.7327V20.7327V20.7327C53.8579 20.7327 53.0716 21.5096 53.0599 22.4754L53.0519 23.1437L53.0243 24.6601C53.019 24.9519 52.6492 25.0742 52.4709 24.843V24.843C52.1659 24.4654 51.7302 23.9135 51.4833 23.6375C51.2364 23.3615 50.8878 22.9549 50.7135 22.7515C50.5392 22.5482 50.0745 22.0108 49.6823 21.5606V21.5606C49.2403 21.0357 48.5891 20.7327 47.9029 20.7327H47.4747V20.7327C46.6404 20.7327 45.9642 21.409 45.9642 22.2432V26.1066Z" fill="#6C6666"/>
<path d="M58.4548 26.1066V26.978C58.4548 29.4647 60.4706 31.4805 62.9573 31.4805V31.4805H66.0799C66.842 31.4805 67.4597 30.8627 67.4597 30.1007V30.1007V30.1007C67.4597 29.3387 66.842 28.7209 66.0799 28.7209H64.7728H62.812C62.411 28.7209 62.0858 28.3958 62.0858 27.9947V27.9947V27.9947C62.0858 27.5936 62.411 27.2685 62.812 27.2685H64.3371H65.2811C66.0031 27.2685 66.5883 26.6833 66.5883 25.9613V25.9613V25.9613C66.5883 25.2394 66.0031 24.6542 65.2811 24.6542H64.3371H62.6668C62.3459 24.6542 62.0858 24.3941 62.0858 24.0732V24.0732V24.0732C62.0858 23.7524 62.3459 23.4923 62.6668 23.4923H64.6275H65.7895C66.5515 23.4923 67.1692 22.8745 67.1692 22.1125V22.1125V22.1125C67.1692 21.3504 66.5515 20.7327 65.7895 20.7327H62.812V20.7327C60.4056 20.7327 58.4548 22.6835 58.4548 25.0899V26.1066Z" fill="#6C6666"/>
<path d="M73.342 20.6412C73.1096 20.6702 72.4996 20.83 72.0203 20.9898L71.8663 21.0402C71.3847 21.1981 70.9456 21.464 70.5824 21.8176V21.8176C70.2774 22.1081 69.9143 22.6164 69.7691 22.936V22.936C69.5874 23.3185 69.4931 23.7366 69.4931 24.1601V24.1996V24.2715C69.4931 24.6736 69.5824 25.0707 69.7546 25.4341V25.4341C70.2774 26.5525 70.9165 26.9301 73.2839 27.511L74.7828 27.8737C74.9782 27.921 75.1515 28.0339 75.2737 28.1937V28.1937V28.1937C75.379 28.3394 75.3496 28.5424 75.2073 28.6523L75.143 28.702V28.702C74.9462 28.8707 74.6955 28.9634 74.4363 28.9634H73.9665V28.9634C73.3894 28.9634 72.8159 28.8704 72.2684 28.6879L71.7879 28.5277C71.0763 28.2808 70.4663 28.092 70.4372 28.092C70.4082 28.092 70.2774 28.397 70.1322 28.7746C69.987 29.1668 69.7546 29.6896 69.6093 29.9511C69.4641 30.2125 69.3479 30.4885 69.3479 30.5611C69.3479 30.7063 70.1903 31.113 71.1634 31.4471V31.4471C71.548 31.5816 71.9525 31.6504 72.3599 31.6504H73.8503H75.2219C75.7059 31.6504 76.1842 31.5464 76.6244 31.3454V31.3454C77.5249 30.9242 78.3383 30.1689 78.6578 29.4718V29.4718C78.8395 29.0893 78.9338 28.6711 78.9338 28.2477V28.092V27.9633C78.9338 27.5243 78.8186 27.0929 78.5997 26.7122V26.7122V26.7122C78.3901 26.3406 78.0903 26.0276 77.728 25.8022L77.6266 25.7391V25.7391C77.1938 25.4698 76.7198 25.2734 76.2234 25.1575L75.6659 25.0274C74.9542 24.8531 74.0827 24.6208 73.7487 24.5046L73.3847 24.3776C73.2287 24.3232 73.1241 24.176 73.1241 24.0108V24.0108V24.0108C73.1241 23.8443 73.226 23.6948 73.381 23.6339L73.5308 23.575V23.575C73.7888 23.4699 74.0675 23.4253 74.3454 23.4446L74.9687 23.4879L75.2408 23.5071C75.7432 23.5424 76.2357 23.6637 76.6971 23.8655V23.8655L77.2094 24.0896C77.3147 24.1357 77.4379 24.0956 77.4959 23.9962V23.9962C77.5685 23.8946 77.8299 23.2991 78.0768 22.66L78.4423 21.7406C78.4919 21.6156 78.4488 21.473 78.3383 21.3964V21.3964C78.0333 21.2076 76.6535 20.83 75.753 20.6702C74.9397 20.5395 74.1699 20.525 73.342 20.6412Z" fill="#6C6666"/>
</svg>
