<svg width="20" height="20" viewBox="0 0 20 20" fill="none" xmlns="http://www.w3.org/2000/svg">
<path d="M0.400024 2.19759C0.400024 1.20399 1.20522 0.399994 2.20002 0.399994H3.40002C4.39242 0.399994 5.19882 1.20399 5.19882 2.19759V17.776C5.19882 18.7684 4.39242 19.5724 3.39882 19.5724H2.19882C1.20522 19.5724 0.400024 18.7684 0.400024 17.776V2.19759ZM2.20002 1.59759C2.04089 1.59759 1.88828 1.66081 1.77576 1.77333C1.66324 1.88585 1.60002 2.03846 1.60002 2.19759V17.776C1.60034 17.9349 1.6637 18.0872 1.77618 18.1995C1.88867 18.3117 2.0411 18.3748 2.20002 18.3748H3.40002C3.55895 18.3745 3.71125 18.3111 3.82351 18.1986C3.93578 18.0861 3.99882 17.9337 3.99882 17.7748V2.19879C3.99882 2.03966 3.93561 1.88705 3.82309 1.77453C3.71057 1.66201 3.55795 1.59879 3.39882 1.59879H2.19882L2.20002 1.59759ZM6.39762 2.19759C6.39762 1.20399 7.20402 0.399994 8.19762 0.399994H9.39762C10.3912 0.399994 11.1964 1.20399 11.1964 2.19759V17.776C11.1964 18.7684 10.3912 19.5724 9.39642 19.5724H8.19642C7.20402 19.5724 6.39762 18.7684 6.39762 17.776V2.19759ZM8.19762 1.59759C8.03849 1.59759 7.88588 1.66081 7.77336 1.77333C7.66084 1.88585 7.59762 2.03846 7.59762 2.19759V17.776C7.59794 17.9349 7.6613 18.0872 7.77378 18.1995C7.88627 18.3117 8.0387 18.3748 8.19762 18.3748H9.39762C9.55675 18.3748 9.70937 18.3116 9.82189 18.1991C9.93441 18.0865 9.99762 17.9339 9.99762 17.7748V2.19879C9.99762 2.03966 9.93441 1.88705 9.82189 1.77453C9.70937 1.66201 9.55675 1.59879 9.39762 1.59879H8.19762V1.59759ZM16.8616 5.38839C16.8068 5.15085 16.7043 4.92691 16.5603 4.73017C16.4163 4.53343 16.2339 4.36799 16.0241 4.24388C15.8142 4.11977 15.5814 4.03959 15.3396 4.00818C15.0978 3.97678 14.8522 3.99481 14.6176 4.06119L13.7236 4.31319C13.2871 4.43667 12.9134 4.72062 12.6775 5.1081C12.4416 5.49557 12.3609 5.95791 12.4516 6.40239L14.8552 18.1624C14.9043 18.4007 15.0012 18.6266 15.1401 18.8265C15.279 19.0263 15.457 19.1959 15.6632 19.325C15.8695 19.4541 16.0998 19.54 16.3402 19.5776C16.5807 19.6152 16.8262 19.6036 17.062 19.5436L18.244 19.2436C19.192 19.0036 19.7728 18.0508 19.5544 17.0992L16.8616 5.38719V5.38839ZM14.944 5.21439C15.0222 5.19213 15.1041 5.18599 15.1848 5.19635C15.2654 5.20671 15.3431 5.23334 15.4131 5.27464C15.4831 5.31594 15.544 5.37104 15.5921 5.4366C15.6402 5.50215 15.6745 5.57679 15.6928 5.65599L18.3844 17.368C18.419 17.5205 18.3927 17.6804 18.3111 17.8137C18.2295 17.9471 18.0991 18.0433 17.9476 18.082L16.7656 18.382C16.6871 18.402 16.6053 18.4059 16.5252 18.3934C16.4451 18.3809 16.3683 18.3524 16.2996 18.3094C16.2309 18.2665 16.1715 18.21 16.1252 18.1435C16.0789 18.077 16.0465 18.0018 16.03 17.9224L13.6264 6.16239C13.5965 6.01436 13.6235 5.86048 13.702 5.73147C13.7805 5.60245 13.9048 5.5078 14.05 5.46639L14.944 5.21439Z" fill="#424242"/>
</svg>
