<svg width="21" height="20" viewBox="0 0 21 20" fill="none" xmlns="http://www.w3.org/2000/svg">
<path d="M10.5 20C4.977 20 0.5 15.523 0.5 10C0.5 4.477 4.977 0 10.5 0C16.023 0 20.5 4.477 20.5 10C20.5 15.523 16.023 20 10.5 20ZM10.5 18C12.6217 18 14.6566 17.1571 16.1569 15.6569C17.6571 14.1566 18.5 12.1217 18.5 10C18.5 7.87827 17.6571 5.84344 16.1569 4.34315C14.6566 2.84285 12.6217 2 10.5 2C8.37827 2 6.34344 2.84285 4.84315 4.34315C3.34285 5.84344 2.5 7.87827 2.5 10C2.5 12.1217 3.34285 14.1566 4.84315 15.6569C6.34344 17.1571 8.37827 18 10.5 18V18ZM9.5 13H11.5V15H9.5V13ZM11.5 11.355V12H9.5V10.5C9.5 10.2348 9.60536 9.98043 9.79289 9.79289C9.98043 9.60536 10.2348 9.5 10.5 9.5C10.7841 9.49998 11.0623 9.4193 11.3023 9.26733C11.5423 9.11536 11.7343 8.89836 11.8558 8.64158C11.9773 8.3848 12.0234 8.0988 11.9887 7.81684C11.954 7.53489 11.84 7.26858 11.6598 7.04891C11.4797 6.82924 11.2409 6.66523 10.9712 6.57597C10.7015 6.48671 10.412 6.47587 10.1364 6.54471C9.86081 6.61354 9.61042 6.75923 9.41437 6.96482C9.21832 7.1704 9.08468 7.42743 9.029 7.706L7.067 7.313C7.18863 6.70508 7.46951 6.14037 7.88092 5.67659C8.29233 5.2128 8.81952 4.86658 9.40859 4.67332C9.99766 4.48006 10.6275 4.44669 11.2337 4.57661C11.8399 4.70654 12.4007 4.99511 12.8588 5.41282C13.3169 5.83054 13.6559 6.36241 13.8411 6.95406C14.0263 7.54572 14.0511 8.17594 13.9129 8.78031C13.7747 9.38467 13.4785 9.9415 13.0545 10.3939C12.6306 10.8462 12.0941 11.1779 11.5 11.355V11.355Z" fill="white"/>
</svg>
