<svg width="100" height="30" viewBox="0 0 100 30" fill="none" xmlns="http://www.w3.org/2000/svg">
<path d="M13.3033 0.646096C13.3033 0.714931 13.5373 1.30691 13.8402 1.99526C14.322 3.09662 14.914 4.48708 16.0154 7.08903C16.2081 7.54334 16.4697 8.16286 16.6074 8.46573C16.7313 8.7686 16.9928 9.37435 17.1718 9.80113C17.3718 10.2844 17.8433 10.5996 18.3664 10.5996H19.2231H20.0798C20.6029 10.5996 21.0744 10.2844 21.2744 9.80113C21.4533 9.37435 21.6874 8.82367 21.7837 8.6034C21.8663 8.36936 22.1417 7.74985 22.3619 7.2267C22.596 6.68979 23.0365 5.6435 23.3532 4.88632C24.014 3.31689 24.0002 3.33065 24.661 1.87136C24.9226 1.27938 25.1429 0.742465 25.1429 0.673631C25.1429 0.605201 25.0874 0.549727 25.019 0.549727H23.4495H22.8852C22.1947 0.549727 21.5735 0.969281 21.3157 1.60978C21.0816 2.20176 20.6686 3.20675 20.3933 3.8538C20.1179 4.50085 19.7875 5.28556 19.6636 5.6022C19.5397 5.93261 19.402 6.19418 19.3607 6.19418C19.3194 6.19418 19.1405 5.83624 18.9753 5.3957C18.7963 4.96892 18.5072 4.26681 18.3282 3.8538C17.929 2.90388 17.3921 1.58225 17.158 0.990271C17.0587 0.725281 16.8053 0.549727 16.5223 0.549727H15.1481C14.1293 0.549727 13.3033 0.591028 13.3033 0.646096Z" fill="#005452"/>
<path d="M28.9453 1.5551C28.6975 2.14708 28.3533 2.93179 28.1881 3.31727C27.899 3.95055 26.4673 7.22708 25.6826 9.03056C25.5036 9.44357 25.2971 9.89787 25.2282 10.0218C25.1456 10.1594 25.0906 10.3247 25.0906 10.4073C25.0906 10.4833 25.1522 10.5449 25.2282 10.5449H26.8114H27.8609C28.2756 10.5449 28.6493 10.2949 28.8077 9.91164C28.9591 9.56747 29.083 9.19576 29.083 9.08562C29.083 8.97918 29.1693 8.89289 29.2757 8.89289H31.0654H32.1543C32.6828 8.89289 33.1551 9.22274 33.337 9.7189C33.5189 10.2151 33.9912 10.5449 34.5197 10.5449H35.4433H37.0413C37.1337 10.5449 37.1974 10.4522 37.1642 10.366C37.0541 10.0768 36.228 8.16324 35.9665 7.58503C35.8288 7.28215 35.2919 6.07066 34.7963 4.90047C34.2869 3.73028 33.7225 2.44995 33.5573 2.07824C33.3921 1.69277 33.158 1.18339 33.0616 0.935583C32.9446 0.667964 32.6802 0.49504 32.3881 0.49504H31.1343H30.5722C29.8678 0.49504 29.2298 0.91075 28.9453 1.5551ZM31.5473 5.0519C31.5934 5.17401 31.6374 5.29291 31.678 5.40533C31.8745 5.94979 31.6294 6.28574 31.0517 6.24963C30.6435 6.22922 30.3736 5.81701 30.5181 5.43472L30.6524 5.07944C30.8865 4.44616 31.093 3.93678 31.1067 3.93678C31.1205 3.93678 31.3132 4.44616 31.5473 5.0519Z" fill="#005452"/>
<path d="M39.0228 5.50621V8.82405C39.0228 9.77446 39.7932 10.5449 40.7436 10.5449H41.2117C41.9036 10.5449 42.4645 9.98403 42.4645 9.29213V8.50929C42.4645 8.26432 42.6749 8.07222 42.9188 8.0944C43.1978 8.12056 43.4504 8.27002 43.6077 8.50191L44.1716 9.33343C44.6884 10.0914 45.5465 10.5449 46.4639 10.5449H46.8286C47.8336 10.5449 48.6596 10.5036 48.6596 10.4623C48.6596 10.421 48.5082 10.187 48.3292 9.95294C48.1503 9.70514 47.6822 9.05809 47.2967 8.49364L46.848 7.82063C46.7178 7.62524 46.778 7.36057 46.9801 7.24085C47.5858 6.86914 48.0814 6.18079 48.3155 5.42361C48.577 4.52876 48.577 4.03315 48.3017 3.12453L48.2951 3.1018C48.1635 2.64561 47.9305 2.2251 47.6134 1.87174C47.338 1.56886 46.7736 1.15585 46.3468 0.949349C45.8301 0.695558 45.2634 0.560094 44.6879 0.552809L42.2993 0.522573C40.4964 0.499848 39.0228 1.95506 39.0228 3.75807V5.50621ZM44.1165 3.19336C44.398 3.25493 44.6422 3.42858 44.7927 3.67422L44.8187 3.71651L44.8968 3.84403C45.0147 4.03641 45.0556 4.26621 45.0114 4.48746C44.9701 4.6802 44.7774 4.9693 44.5846 5.13451C44.3633 5.33813 44.0735 5.45115 43.7728 5.45115H43.3456C42.859 5.45115 42.4645 5.05667 42.4645 4.57006V4.28095V3.71651C42.4645 3.38196 42.7357 3.11076 43.0703 3.11076C43.4007 3.11076 43.8687 3.15206 44.1165 3.19336Z" fill="#005452"/>
<path d="M53.2303 0.31607C52.7347 0.49504 52.0738 0.839214 51.7572 1.10079C51.3881 1.39789 51.0936 1.78179 50.9037 2.21591L50.8477 2.34638C50.6939 2.70538 50.6145 3.09189 50.6145 3.48247C50.6283 4.26719 51.0276 5.13451 51.592 5.54751C52.184 5.98806 53.2853 6.40107 54.6345 6.69017C55.2265 6.81408 55.846 7.03435 56.0112 7.17202L56.0877 7.23519C56.2165 7.34158 56.2257 7.53574 56.1076 7.65386C55.9837 7.77776 55.6395 7.91543 55.3228 7.95673C54.9583 8.0023 54.5887 7.9861 54.2296 7.90882L53.6846 7.79153C53.0926 7.66763 52.4042 7.43359 52.1427 7.29592C51.8811 7.14448 51.6333 7.07565 51.5645 7.13072C51.5094 7.18578 51.2341 7.764 50.9587 8.39728L50.5388 9.35055C50.488 9.46601 50.5325 9.60124 50.6421 9.66384C50.7384 9.73267 51.3167 9.95294 51.9224 10.1594C52.6518 10.4056 53.4164 10.5312 54.1862 10.5312H54.8135L55.6058 10.5372C56.2616 10.5423 56.9096 10.3941 57.498 10.1044C57.9936 9.87034 58.4892 9.58123 58.6131 9.48487C58.7233 9.3885 58.9849 9.05809 59.1914 8.75522C59.4336 8.39631 59.5631 7.97317 59.5631 7.54015V7.15825V6.93176C59.5631 6.40302 59.3724 5.89201 59.0262 5.49245C58.6643 5.08534 58.2104 4.77061 57.7022 4.57447L57.6908 4.57006C57.264 4.40486 56.438 4.18459 55.8598 4.06068C55.2953 3.93678 54.6483 3.75781 54.428 3.64767L54.252 3.5534C54.127 3.48644 54.0592 3.34677 54.0838 3.20713C54.1114 3.08323 54.2766 2.90426 54.4693 2.79412C54.694 2.67727 54.9475 2.62734 55.1998 2.65027L55.5707 2.68399C55.9837 2.72529 56.672 2.87672 57.085 3.01439C57.498 3.16583 57.9248 3.3035 58.0212 3.33103C58.1142 3.36204 58.2153 3.31575 58.2527 3.22508L58.6682 2.21591C58.9436 1.56886 59.1225 0.976884 59.095 0.894282C59.0675 0.811681 58.6131 0.605176 58.09 0.426206C57.4692 0.216224 56.8212 0.0974684 56.1663 0.0736523L55.6395 0.0544977L55.0737 0.0339241C54.447 0.0111322 53.8215 0.106857 53.2303 0.31607Z" fill="#005452"/>
<path d="M61.3528 5.51998V8.82405C61.3528 9.77446 62.1232 10.5449 63.0737 10.5449C64.0241 10.5449 64.7945 9.77446 64.7945 8.82405V5.51998V2.21591C64.7945 1.2655 64.0241 0.49504 63.0737 0.49504C62.1232 0.49504 61.3528 1.2655 61.3528 2.21591V5.51998Z" fill="#005452"/>
<path d="M67.5452 1.85759C67.5452 2.5799 68.1307 3.16545 68.853 3.16545H68.9907C69.789 3.16545 70.4362 3.81264 70.4362 4.61098V6.88253V8.80991C70.4362 9.79833 71.2375 10.5996 72.2259 10.5996C73.2144 10.5996 74.0156 9.79833 74.0156 8.80991V6.88253V4.61098C74.0156 3.81264 74.6628 3.16545 75.4612 3.16545H75.5988C76.3212 3.16545 76.9067 2.5799 76.9067 1.85759C76.9067 1.13528 76.3212 0.549727 75.5988 0.549727H72.2259H68.853C68.1307 0.549727 67.5452 1.13528 67.5452 1.85759Z" fill="#005452"/>
<path d="M77.997 0.935582C78.3963 1.61016 79.9657 4.25342 80.1172 4.48746C80.186 4.59759 80.5164 5.16204 80.8606 5.72649C81.2658 6.39282 81.4801 7.1577 81.4801 7.93757V8.64508V8.82405C81.4801 9.77446 82.2505 10.5449 83.201 10.5449C84.1514 10.5449 84.9218 9.77446 84.9218 8.82405V8.74145V7.5217C84.9218 7.15189 85.0427 6.79221 85.266 6.49744C85.4587 6.24963 85.6102 5.98806 85.6102 5.90546C85.6102 5.82285 85.7203 5.61635 85.858 5.43738C85.9957 5.25841 86.2572 4.83163 86.45 4.48746C86.6289 4.14328 86.918 3.67521 87.0832 3.44117C87.2622 3.20713 87.3999 2.98686 87.3999 2.94556C87.3999 2.90426 87.7165 2.35358 88.102 1.7203C88.4101 1.20276 88.0471 0.544978 87.445 0.529671L87.1658 0.522573L85.8938 0.490234C85.6718 0.484589 85.4598 0.583149 85.3211 0.756612C85.1972 0.908049 84.7429 1.65146 84.3023 2.40865C83.8755 3.1796 83.4625 3.79911 83.3937 3.79911C83.3249 3.79911 83.201 3.66144 83.1321 3.48247C83.0633 3.31727 82.843 2.93179 82.6503 2.62892C82.4713 2.32605 82.1822 1.83043 82.017 1.52756C81.8518 1.22469 81.6315 0.866748 81.5076 0.729078C81.3763 0.580277 81.1874 0.49504 80.989 0.49504H79.5114H78.2478C78.0217 0.49504 77.8816 0.741174 77.997 0.935582Z" fill="#005452"/>
<path d="M87.0873 13.5336C80.7407 13.5749 56.0152 13.8227 42.7576 13.9879C36.59 14.0705 25.37 14.1944 17.8394 14.2633L4.14131 14.4009L2.42044 14.5524L0.699569 14.7038L0.520599 14.9241C0.300327 15.2132 0.314094 15.9428 0.548132 16.2733L0.74087 16.5348L6.71573 16.5899C12.1812 16.6312 22.4238 16.5486 52.7387 16.1907C58.8788 16.1081 71.7233 15.9979 81.3051 15.9153L98.7203 15.7776L99.1058 15.6124C99.4913 15.461 99.8905 14.8828 99.8905 14.4698C99.8905 14.3459 99.7116 14.0568 99.4913 13.8365L99.092 13.4373L95.3199 13.4648C93.2549 13.4923 89.5515 13.5199 87.0873 13.5336Z" fill="#005452"/>
<path d="M25.0726 19.7487C25.0726 19.845 25.5545 21.0015 26.4493 23.094C27.0826 24.5809 28.0325 26.8111 28.5144 27.9813C28.6491 28.3107 28.788 28.6239 28.8977 28.8521C29.0145 29.0951 29.2027 29.3224 29.2027 29.592C29.2027 29.7289 29.3137 29.8398 29.4505 29.8398H30.9924H32.5343C32.6712 29.8398 32.7821 29.7289 32.7821 29.592C32.7821 29.4544 32.8372 29.2892 32.8923 29.2066C32.9473 29.1377 33.2089 28.5871 33.4567 27.9813C33.7183 27.3756 34.2139 26.1916 34.5718 25.3656C34.9298 24.5258 35.4254 23.3556 35.6732 22.7499C35.921 22.1441 36.3065 21.2493 36.513 20.7674C36.7332 20.2856 36.9122 19.845 36.9122 19.7762C36.9122 19.7078 36.8567 19.6523 36.7883 19.6523H35.2051H33.7982C33.6128 19.6523 33.4504 19.7763 33.4016 19.9552C33.3466 20.1341 32.8785 21.2906 32.3554 22.5434C31.8184 23.7961 31.3366 24.9663 31.254 25.1591C31.2027 25.2821 31.0287 25.2826 30.9767 25.1599L30.7722 24.6772C30.5932 24.2229 30.0563 22.9013 29.5882 21.7449L29.4355 21.3643C29.0204 20.3301 28.0181 19.6523 26.9036 19.6523C25.8986 19.6523 25.0726 19.6936 25.0726 19.7487Z" fill="#005452"/>
<path d="M38.7019 24.7461V28.119C38.7019 29.0694 39.4724 29.8398 40.4228 29.8398C41.3732 29.8398 42.1436 29.0694 42.1436 28.119V24.7461V21.3732C42.1436 20.4228 41.3732 19.6523 40.4228 19.6523C39.4724 19.6523 38.7019 20.4228 38.7019 21.3732V24.7461Z" fill="#005452"/>
<path d="M43.3187 24.5937V27.9666C43.3187 28.917 44.0892 29.6875 45.0396 29.6875C45.9934 29.6875 46.7699 28.9205 46.7817 27.9668L46.788 27.4573L46.7994 26.8428C46.8098 26.287 47.5036 26.0409 47.8618 26.466C48.4263 27.1406 49.032 27.8427 49.1972 28.0217C49.3762 28.2007 49.7341 28.6412 50.0232 29.0129C50.344 29.4378 50.8456 29.6875 51.3779 29.6875H51.9506C52.7338 29.6875 53.3686 29.0526 53.3686 28.2695V24.5937V21.152C53.3686 20.2396 52.629 19.4999 51.7166 19.4999C50.801 19.4999 50.0557 20.2363 50.0446 21.1519L50.037 21.7853L50.0109 23.2226C50.0058 23.4993 49.6553 23.6151 49.4863 23.396C49.1972 23.0381 48.7842 22.5149 48.5502 22.2533C48.3161 21.9918 47.9857 21.6063 47.8205 21.4136C47.6553 21.2208 47.2148 20.7114 46.8431 20.2847C46.4241 19.7871 45.8068 19.4999 45.1564 19.4999H44.7505C43.9597 19.4999 43.3187 20.141 43.3187 20.9317V24.5937Z" fill="#005452"/>
<path d="M55.7729 24.7461V25.5721C55.7729 27.9291 57.6837 29.8398 60.0407 29.8398H63.0006C63.7229 29.8398 64.3085 29.2543 64.3085 28.532C64.3085 27.8097 63.7229 27.2241 63.0006 27.2241H61.7616H59.903C59.5229 27.2241 59.2147 26.9159 59.2147 26.5358C59.2147 26.1556 59.5229 25.8474 59.903 25.8474H61.3486H62.2434C62.9277 25.8474 63.4824 25.2927 63.4824 24.6084C63.4824 23.9241 62.9277 23.3694 62.2434 23.3694H61.3486H59.7654C59.4612 23.3694 59.2147 23.1228 59.2147 22.8187C59.2147 22.5146 59.4612 22.268 59.7654 22.268H61.6239H62.7253C63.4476 22.268 64.0331 21.6825 64.0331 20.9602C64.0331 20.2378 63.4476 19.6523 62.7253 19.6523H59.903C57.6221 19.6523 55.7729 21.5014 55.7729 23.7824V24.7461Z" fill="#005452"/>
<path d="M69.8841 19.5646C69.6638 19.5922 69.0856 19.7436 68.6313 19.8951L68.4854 19.9429C68.0289 20.0926 67.6126 20.3446 67.2684 20.6798C66.9793 20.9551 66.6351 21.4369 66.4974 21.7398C66.3252 22.1024 66.2359 22.4988 66.2359 22.9001V22.9375V23.0057C66.2359 23.3869 66.3205 23.7633 66.4837 24.1077C66.9793 25.1678 67.585 25.5257 69.8291 26.0764L71.2498 26.4201C71.4351 26.465 71.5993 26.572 71.7151 26.7235C71.8149 26.8616 71.7871 27.054 71.6522 27.1582L71.5912 27.2053C71.4047 27.3652 71.1671 27.4531 70.9213 27.4531H70.4761C69.929 27.4531 69.3855 27.3649 68.8665 27.1919L68.4111 27.0401C67.7365 26.8061 67.1583 26.6271 67.1307 26.6271C67.1032 26.6271 66.9793 26.9162 66.8416 27.2741C66.704 27.6458 66.4837 28.1415 66.346 28.3893C66.2083 28.6371 66.0982 28.8986 66.0982 28.9675C66.0982 29.1051 66.8967 29.4906 67.8191 29.8073C68.1836 29.9348 68.567 30 68.9532 30H70.366H71.666C72.1248 30 72.5781 29.9014 72.9955 29.7109C73.849 29.3117 74.62 28.5958 74.9228 27.935C75.095 27.5724 75.1844 27.176 75.1844 26.7746V26.6271V26.5051C75.1844 26.0889 75.0752 25.68 74.8678 25.3192C74.669 24.967 74.3849 24.6703 74.0415 24.4567L73.9454 24.3968C73.5351 24.1416 73.0858 23.9554 72.6153 23.8456L72.0868 23.7223C71.4123 23.5571 70.5862 23.3368 70.2696 23.2267L69.9246 23.1063C69.7767 23.0547 69.6776 22.9152 69.6776 22.7586C69.6776 22.6008 69.7742 22.4591 69.9211 22.4014L70.0631 22.3456C70.3076 22.2459 70.5718 22.2036 70.8352 22.2219L71.426 22.263L71.684 22.2811C72.1601 22.3147 72.627 22.4296 73.0643 22.6209L73.5499 22.8334C73.6498 22.8771 73.7665 22.839 73.8215 22.7448C73.8903 22.6484 74.1381 22.084 74.3721 21.4783L74.7185 20.6067C74.7656 20.4883 74.7247 20.3531 74.62 20.2805C74.3308 20.1016 73.023 19.7436 72.1694 19.5922C71.3985 19.4683 70.6688 19.4545 69.8841 19.5646Z" fill="#005452"/>
</svg>
