<svg width="18" height="22" viewBox="0 0 18 22" fill="none" xmlns="http://www.w3.org/2000/svg">
<path d="M8.94525 2C8.1496 2 7.38654 2.31607 6.82393 2.87868C6.26132 3.44129 5.94525 4.20435 5.94525 5V9C5.94525 9.79565 6.26132 10.5587 6.82393 11.1213C7.38654 11.6839 8.1496 12 8.94525 12C9.7409 12 10.504 11.6839 11.0666 11.1213C11.6292 10.5587 11.9453 9.79565 11.9453 9V5C11.9453 4.20435 11.6292 3.44129 11.0666 2.87868C10.504 2.31607 9.7409 2 8.94525 2ZM8.94525 0C9.60186 0 10.252 0.129329 10.8587 0.380602C11.4653 0.631876 12.0165 1.00017 12.4808 1.46447C12.9451 1.92876 13.3134 2.47995 13.5646 3.08658C13.8159 3.69321 13.9453 4.34339 13.9453 5V9C13.9453 10.3261 13.4185 11.5979 12.4808 12.5355C11.5431 13.4732 10.2713 14 8.94525 14C7.61917 14 6.3474 13.4732 5.40972 12.5355C4.47204 11.5979 3.94525 10.3261 3.94525 9V5C3.94525 3.67392 4.47204 2.40215 5.40972 1.46447C6.3474 0.526784 7.61917 0 8.94525 0ZM0.00025177 10H2.01525C2.25754 11.6648 3.09112 13.1867 4.36348 14.2873C5.63585 15.3879 7.26193 15.9936 8.94425 15.9936C10.6266 15.9936 12.2527 15.3879 13.525 14.2873C14.7974 13.1867 15.631 11.6648 15.8733 10H17.8893C17.6619 12.0287 16.7519 13.9199 15.3085 15.3635C13.8651 16.8071 11.9739 17.7174 9.94525 17.945V22H7.94525V17.945C5.91639 17.7176 4.02504 16.8074 2.58143 15.3638C1.13782 13.9202 0.227664 12.0289 0.00025177 10Z" fill="#424242"/>
</svg>
