<svg width="19" height="19" viewBox="0 0 19 19" fill="none" xmlns="http://www.w3.org/2000/svg">
<path d="M15.1503 13.118L18.9454 16.9122L17.6916 18.166L13.8974 14.3709C12.4856 15.5026 10.7296 16.1182 8.92025 16.1156C4.51816 16.1156 0.94545 12.5429 0.94545 8.14081C0.94545 3.73872 4.51816 0.166016 8.92025 0.166016C13.3223 0.166016 16.895 3.73872 16.895 8.14081C16.8976 9.9502 16.2821 11.7062 15.1503 13.118ZM13.3728 12.4605C14.4974 11.304 15.1254 9.75387 15.1229 8.14081C15.1229 4.71342 12.3468 1.93819 8.92025 1.93819C5.49286 1.93819 2.71763 4.71342 2.71763 8.14081C2.71763 11.5673 5.49286 14.3434 8.92025 14.3434C10.5333 14.346 12.0835 13.718 13.2399 12.5934L13.3728 12.4605Z" fill="#A6A6A6"/>
</svg>
