<svg width="16" height="16" viewBox="0 0 16 16" fill="none" xmlns="http://www.w3.org/2000/svg">
<path fill-rule="evenodd" clip-rule="evenodd" d="M13.0158 0.925333C12.5594 1.78822 12.3345 1.93711 9.68421 3.13044L6.84211 4.41022V8V11.5898L9.68421 12.8696C12.3345 14.0629 12.5594 14.2118 13.0158 15.0747C13.4604 15.9153 13.5808 16 14.3316 16H15.1579V12.8684C15.1579 10.0733 15.2032 9.676 15.5789 9.17178C15.8105 8.86089 16 8.33378 16 8C16 7.66622 15.8105 7.13911 15.5789 6.82822C15.2032 6.324 15.1579 5.92667 15.1579 3.13156V0H14.3316C13.5808 0 13.4604 0.0846666 13.0158 0.925333ZM0.516842 4.99C0.0303157 5.50356 0 5.67956 0 8C0 10.3204 0.0303157 10.4964 0.516842 11.01C0.941053 11.458 1.24211 11.5556 2.20105 11.5556H3.36842V13.7778V16H4.21053H5.05263V10.2222V4.44444H3.04316C1.19011 4.44444 0.993263 4.48689 0.516842 4.99Z" fill="white"/>
</svg>
