<svg width="24" height="24" viewBox="0 0 24 24" fill="none" xmlns="http://www.w3.org/2000/svg">
<path d="M16.7781 12.513L12 17.008L7.22188 12.513H9.65216H9.85216V12.313V7.17826H14.1478L14.1478 12.313L14.1478 12.513H14.3478H16.7781ZM0.2 12C0.2 5.48306 5.48306 0.2 12 0.2C18.5169 0.2 23.8 5.48306 23.8 12C23.8 18.5169 18.5169 23.8 12 23.8C5.48306 23.8 0.2 18.5169 0.2 12ZM2.4087 12C2.4087 17.2965 6.70213 21.5913 12 21.5913C17.2979 21.5913 21.5913 17.2965 21.5913 12C21.5913 6.70348 17.2979 2.4087 12 2.4087C6.70213 2.4087 2.4087 6.70348 2.4087 12Z" fill="#424242" stroke="white" stroke-width="0.4"/>
</svg>
