<svg width="428" height="179" viewBox="0 0 428 179" fill="none" xmlns="http://www.w3.org/2000/svg">
<g opacity="0.6">
<path d="M447 178.949L447 -597L-18.9999 -597L-18.9999 178.949L447 178.949Z" fill="white"/>
<path d="M311.97 -42.1063L330.661 -42.1063L330.661 68.4213L214.322 68.4213L214.322 55.854C214 1.71805 257.829 -42.1063 311.97 -42.1063Z" fill="#00A9A5"/>
<path d="M213.356 12.9965L155.025 12.9965C155.025 -17.616 181.129 -42.4283 213.356 -42.4283L213.356 12.9965Z" fill="#DD1515"/>
<path d="M330.339 12.9965C330.339 43.6069 356.454 68.4214 388.67 68.4214C420.885 68.4214 447 43.6069 447 12.9965C447 -17.6138 420.885 -42.4283 388.67 -42.4283C356.454 -42.4283 330.339 -17.6138 330.339 12.9965Z" fill="#F9851B"/>
<path d="M214.323 96.1339C214.323 111.439 227.308 123.846 243.327 123.846C259.345 123.846 272.331 111.439 272.331 96.1339C272.331 80.8287 259.345 68.4214 243.327 68.4214C227.308 68.4214 214.323 80.8287 214.323 96.1339Z" fill="#F9851B"/>
<path d="M272.331 96.1339C272.331 111.439 285.316 123.846 301.335 123.846C317.354 123.846 330.339 111.439 330.339 96.1339C330.339 80.8287 317.354 68.4214 301.335 68.4214C285.316 68.4214 272.331 80.8287 272.331 96.1339Z" fill="#DD1515"/>
<path d="M272.331 151.237C272.331 166.542 285.316 178.949 301.335 178.949C317.354 178.949 330.339 166.542 330.339 151.237C330.339 135.931 317.354 123.524 301.335 123.524C285.316 123.524 272.331 135.931 272.331 151.237Z" fill="#00A9A5"/>
<path d="M214.323 151.237C214.323 166.542 227.308 178.949 243.327 178.949C259.345 178.949 272.331 166.542 272.331 151.237C272.331 135.931 259.345 123.524 243.327 123.524C227.308 123.524 214.323 135.931 214.323 151.237Z" fill="#005452"/>
<path d="M214 68.4213L97.6613 68.4213L97.6613 -42.1063L214 68.4213Z" fill="#DD1515"/>
<path d="M97.6617 -5.37097L97.6617 68.4214L19.9949 68.4214L97.6617 -5.37097Z" fill="#005452"/>
<path d="M58.6672 -42.1062L58.6672 31.3641L-18.6773 31.3641L58.6672 -42.1062Z" fill="#005452"/>
<path d="M-18.6773 68.4214L97.6617 68.4214L97.6617 178.949L-18.6773 68.4214Z" fill="#F9851B"/>
<path d="M192.408 158.326L192.408 88.7224L119.253 88.7224L119.253 158.326L192.408 158.326Z" fill="#DD1515"/>
<path d="M29.0185 178.627L29.0185 133.191L-18.9996 133.191L-18.9996 178.627L29.0185 178.627Z" fill="#005452"/>
<path d="M447 178.949L330.661 178.949L388.67 123.524L447 178.949Z" fill="#005452"/>
<path d="M330.661 68.4214L447 68.4214L388.67 123.524L330.661 68.4214Z" fill="#DD1515"/>
</g>
</svg>
