<svg width="220" height="60" viewBox="0 0 220 60" fill="none" xmlns="http://www.w3.org/2000/svg">
<rect width="222" height="60" transform="translate(-1)" fill="white"/>
<path d="M43 36V33" stroke="#424242" stroke-width="1.5" stroke-linecap="round" stroke-linejoin="round"/>
<path d="M41.0698 20.8198L34.1398 26.3698C33.3598 26.9898 32.8598 28.2998 33.0298 29.2798L34.3598 37.2398C34.5998 38.6598 35.9598 39.8098 37.3998 39.8098H48.5998C50.0298 39.8098 51.3998 38.6498 51.6398 37.2398L52.9698 29.2798C53.1298 28.2998 52.6298 26.9898 51.8598 26.3698L44.9298 20.8298C43.8598 19.9698 42.1298 19.9698 41.0698 20.8198Z" stroke="#424242" stroke-width="1.5" stroke-linecap="round" stroke-linejoin="round"/>
<path d="M72.233 35V24.8182H73.4659V29.3523H78.8949V24.8182H80.1278V35H78.8949V30.446H73.4659V35H72.233ZM85.5394 35.1591C84.85 35.1591 84.2451 34.995 83.7248 34.6669C83.2077 34.3388 82.8034 33.8797 82.5117 33.2898C82.2234 32.6998 82.0792 32.0104 82.0792 31.2216C82.0792 30.4261 82.2234 29.7318 82.5117 29.1385C82.8034 28.5452 83.2077 28.0845 83.7248 27.7564C84.2451 27.4283 84.85 27.2642 85.5394 27.2642C86.2288 27.2642 86.832 27.4283 87.3491 27.7564C87.8694 28.0845 88.2738 28.5452 88.5621 29.1385C88.8538 29.7318 88.9996 30.4261 88.9996 31.2216C88.9996 32.0104 88.8538 32.6998 88.5621 33.2898C88.2738 33.8797 87.8694 34.3388 87.3491 34.6669C86.832 34.995 86.2288 35.1591 85.5394 35.1591ZM85.5394 34.1051C86.0631 34.1051 86.494 33.9709 86.832 33.7024C87.1701 33.4339 87.4203 33.081 87.5827 32.6435C87.7451 32.206 87.8263 31.732 87.8263 31.2216C87.8263 30.7112 87.7451 30.2356 87.5827 29.7947C87.4203 29.3539 87.1701 28.9976 86.832 28.7259C86.494 28.4541 86.0631 28.3182 85.5394 28.3182C85.0157 28.3182 84.5849 28.4541 84.2468 28.7259C83.9087 28.9976 83.6585 29.3539 83.4961 29.7947C83.3337 30.2356 83.2525 30.7112 83.2525 31.2216C83.2525 31.732 83.3337 32.206 83.4961 32.6435C83.6585 33.081 83.9087 33.4339 84.2468 33.7024C84.5849 33.9709 85.0157 34.1051 85.5394 34.1051ZM90.7907 35V27.3636H91.9242V28.5568H92.0236C92.1827 28.1491 92.4396 27.8326 92.7942 27.6072C93.1489 27.3786 93.5748 27.2642 94.0719 27.2642C94.5757 27.2642 94.995 27.3786 95.3297 27.6072C95.6678 27.8326 95.9313 28.1491 96.1202 28.5568H96.1998C96.3953 28.1624 96.6886 27.8492 97.0797 27.6172C97.4708 27.3819 97.9398 27.2642 98.4867 27.2642C99.1694 27.2642 99.7279 27.478 100.162 27.9055C100.596 28.3298 100.813 28.991 100.813 29.8892V35H99.6401V29.8892C99.6401 29.3258 99.486 28.9231 99.1777 28.6811C98.8695 28.4392 98.5066 28.3182 98.089 28.3182C97.552 28.3182 97.1361 28.4806 96.8411 28.8054C96.5461 29.1269 96.3986 29.5346 96.3986 30.0284V35H95.2054V29.7699C95.2054 29.3357 95.0646 28.986 94.7828 28.7209C94.5011 28.4524 94.1382 28.3182 93.6941 28.3182C93.3891 28.3182 93.1041 28.3994 92.839 28.5618C92.5771 28.7242 92.365 28.9496 92.2026 29.2379C92.0435 29.523 91.964 29.8527 91.964 30.2273V35H90.7907ZM106.16 35.1591C105.425 35.1591 104.79 34.9967 104.256 34.6719C103.726 34.3438 103.317 33.8864 103.028 33.2997C102.743 32.7098 102.601 32.0237 102.601 31.2415C102.601 30.4593 102.743 29.7699 103.028 29.1733C103.317 28.5734 103.718 28.1061 104.231 27.7713C104.748 27.4332 105.352 27.2642 106.041 27.2642C106.439 27.2642 106.831 27.3305 107.219 27.4631C107.607 27.5956 107.96 27.8111 108.278 28.1094C108.596 28.4044 108.85 28.7955 109.039 29.2827C109.228 29.7699 109.322 30.3698 109.322 31.0824V31.5795H103.436V30.5653H108.129C108.129 30.1345 108.043 29.75 107.871 29.4119C107.702 29.0739 107.46 28.8071 107.145 28.6115C106.833 28.416 106.465 28.3182 106.041 28.3182C105.574 28.3182 105.169 28.4342 104.828 28.6662C104.49 28.8949 104.23 29.1932 104.047 29.5611C103.865 29.929 103.774 30.3234 103.774 30.7443V31.4205C103.774 31.9972 103.873 32.486 104.072 32.8871C104.274 33.2848 104.555 33.5881 104.912 33.7969C105.27 34.0024 105.686 34.1051 106.16 34.1051C106.469 34.1051 106.747 34.062 106.996 33.9759C107.247 33.8864 107.465 33.7538 107.647 33.5781C107.829 33.3991 107.97 33.1771 108.069 32.9119L109.203 33.2301C109.084 33.6146 108.883 33.9527 108.601 34.2443C108.32 34.5327 107.972 34.758 107.557 34.9205C107.143 35.0795 106.677 35.1591 106.16 35.1591Z" fill="#424242"/>
</svg>
