<svg width="20" height="20" viewBox="0 0 20 20" fill="none" xmlns="http://www.w3.org/2000/svg">
<path d="M0.399902 2.19799C0.399902 1.20439 1.2051 0.400391 2.1999 0.400391H3.3999C4.3923 0.400391 5.1987 1.20439 5.1987 2.19799V17.7764C5.1987 18.7688 4.3923 19.5728 3.3987 19.5728H2.1987C1.2051 19.5728 0.399902 18.7688 0.399902 17.7764V2.19799ZM2.1999 1.59799C2.04077 1.59799 1.88816 1.6612 1.77564 1.77373C1.66312 1.88625 1.5999 2.03886 1.5999 2.19799V17.7764C1.60022 17.9353 1.66357 18.0876 1.77606 18.1999C1.88855 18.3121 2.04098 18.3752 2.1999 18.3752H3.3999C3.55882 18.3749 3.71113 18.3115 3.82339 18.199C3.93565 18.0865 3.9987 17.9341 3.9987 17.7752V2.19919C3.9987 2.04006 3.93549 1.88745 3.82297 1.77493C3.71044 1.6624 3.55783 1.59919 3.3987 1.59919H2.1987L2.1999 1.59799ZM6.3975 2.19799C6.3975 1.20439 7.2039 0.400391 8.1975 0.400391H9.3975C10.3911 0.400391 11.1963 1.20439 11.1963 2.19799V17.7764C11.1963 18.7688 10.3911 19.5728 9.3963 19.5728H8.1963C7.2039 19.5728 6.3975 18.7688 6.3975 17.7764V2.19799ZM8.1975 1.59799C8.03837 1.59799 7.88576 1.6612 7.77324 1.77373C7.66072 1.88625 7.5975 2.03886 7.5975 2.19799V17.7764C7.59782 17.9353 7.66117 18.0876 7.77366 18.1999C7.88615 18.3121 8.03858 18.3752 8.1975 18.3752H9.3975C9.55663 18.3752 9.70924 18.312 9.82176 18.1995C9.93429 18.0869 9.9975 17.9343 9.9975 17.7752V2.19919C9.9975 2.04006 9.93429 1.88745 9.82176 1.77493C9.70924 1.6624 9.55663 1.59919 9.3975 1.59919H8.1975V1.59799ZM16.8615 5.38879C16.8067 5.15124 16.7042 4.92731 16.5602 4.73057C16.4162 4.53383 16.2338 4.36839 16.0239 4.24428C15.8141 4.12017 15.5812 4.03998 15.3395 4.00858C15.0977 3.97717 14.8521 3.99521 14.6175 4.06159L13.7235 4.31359C13.287 4.43707 12.9133 4.72102 12.6774 5.10849C12.4415 5.49597 12.3608 5.95831 12.4515 6.40279L14.8551 18.1628C14.9042 18.4011 15.0011 18.627 15.14 18.8269C15.2789 19.0267 15.4568 19.1963 15.6631 19.3254C15.8694 19.4545 16.0997 19.5404 16.3401 19.578C16.5805 19.6156 16.8261 19.604 17.0619 19.544L18.2439 19.244C19.1919 19.004 19.7727 18.0512 19.5543 17.0996L16.8615 5.38759V5.38879ZM14.9439 5.21479C15.0221 5.19253 15.104 5.18639 15.1846 5.19675C15.2653 5.2071 15.343 5.23374 15.413 5.27504C15.483 5.31634 15.5439 5.37144 15.592 5.43699C15.6401 5.50255 15.6743 5.57719 15.6927 5.65639L18.3843 17.3684C18.4189 17.5209 18.3925 17.6808 18.311 17.8141C18.2294 17.9475 18.099 18.0437 17.9475 18.0824L16.7655 18.3824C16.6869 18.4024 16.6052 18.4063 16.5251 18.3938C16.445 18.3813 16.3682 18.3528 16.2995 18.3098C16.2307 18.2668 16.1714 18.2104 16.1251 18.1439C16.0787 18.0774 16.0464 18.0022 16.0299 17.9228L13.6263 6.16279C13.5964 6.01476 13.6233 5.86088 13.7018 5.73186C13.7804 5.60285 13.9047 5.50819 14.0499 5.46679L14.9439 5.21479Z" fill="#424242"/>
</svg>
