<svg width="105" height="32" viewBox="0 0 105 32" fill="none" xmlns="http://www.w3.org/2000/svg">
<path fill-rule="evenodd" clip-rule="evenodd" d="M55.7754 0.301134C55.2525 0.489946 54.5554 0.853047 54.2213 1.129C53.8319 1.44245 53.5212 1.84746 53.3208 2.30545L53.2618 2.44309C53.0995 2.82183 53.0158 3.2296 53.0158 3.64166C53.0304 4.46953 53.4515 5.38454 54.047 5.82026C54.6716 6.28503 55.8335 6.72075 57.2568 7.02576C57.8814 7.15647 58.535 7.38886 58.7092 7.5341L58.7899 7.60075C58.9258 7.71299 58.9355 7.91782 58.8109 8.04244C58.6802 8.17316 58.3171 8.3184 57.983 8.36197C57.5985 8.41004 57.2086 8.39295 56.8297 8.31142L56.2547 8.18768C55.6302 8.05696 54.904 7.81005 54.628 7.66481C54.352 7.50505 54.0906 7.43243 54.018 7.49053C53.9599 7.54862 53.6694 8.15863 53.3789 8.82674L52.9359 9.83243C52.8823 9.95425 52.9293 10.0969 53.0449 10.1629C53.1465 10.2356 53.7566 10.468 54.3956 10.6858C55.1651 10.9455 55.9717 11.078 56.7838 11.078H57.4457L58.2815 11.0844C58.9735 11.0897 59.6571 10.9333 60.2778 10.6277C60.8007 10.3808 61.3236 10.0758 61.4543 9.97413C61.5705 9.87247 61.8464 9.52389 62.0643 9.20436C62.3199 8.82572 62.4564 8.37931 62.4564 7.92248V7.51957V7.28063C62.4564 6.72282 62.2553 6.1837 61.89 5.76217C61.5082 5.33267 61.0293 5.00063 60.4932 4.79371L60.4812 4.78906C60.0309 4.61477 59.1595 4.38239 58.5495 4.25167C57.954 4.12095 57.2714 3.93214 57.039 3.81595L56.8533 3.71648C56.7215 3.64584 56.6499 3.49849 56.6759 3.35118C56.7049 3.22046 56.8792 3.03165 57.0826 2.91546C57.3196 2.79218 57.5871 2.73951 57.8532 2.7637L58.2445 2.79927C58.6802 2.84284 59.4064 3.0026 59.8421 3.14784C60.2778 3.30761 60.7281 3.45285 60.8298 3.4819C60.9279 3.51461 61.0346 3.46577 61.074 3.37011L61.5124 2.30545C61.8029 1.62282 61.9917 0.998287 61.9626 0.911143C61.9336 0.823999 61.4543 0.606139 60.9024 0.417326C60.2474 0.195798 59.5638 0.0705114 58.8728 0.045386L58.3171 0.0251775L57.7202 0.00347269C57.059 -0.020572 56.3992 0.0804164 55.7754 0.301134ZM30.155 1.6083C29.9762 2.03546 29.7498 2.55776 29.5688 2.97534C29.4852 3.16827 29.4112 3.33885 29.3562 3.46737C29.0512 4.13548 27.5407 7.59219 26.7128 9.49484C26.524 9.93056 26.3061 10.4099 26.2335 10.5406C26.1464 10.6858 26.0883 10.8601 26.0883 10.9472C26.0883 11.0275 26.1533 11.0925 26.2335 11.0925H27.9038H29.0109C29.4484 11.0925 29.8427 10.8287 30.0097 10.4244C30.1695 10.0613 30.3002 9.66913 30.3002 9.55294C30.3002 9.44064 30.3913 9.3496 30.5036 9.3496H32.3917H33.5404C34.098 9.3496 34.5962 9.6976 34.7881 10.221C34.9801 10.7445 35.4783 11.0925 36.0359 11.0925H37.0103H38.6962C38.7937 11.0925 38.8608 10.9947 38.8258 10.9037C38.7096 10.5987 37.8382 8.57983 37.5622 7.96982C37.417 7.65029 36.8506 6.37218 36.3277 5.13763C35.7903 3.90309 35.1948 2.55236 35.0205 2.16021C34.9526 2.00162 34.8736 1.82315 34.7964 1.64892C34.6758 1.37637 34.5597 1.1142 34.4977 0.954714C34.3741 0.672379 34.0952 0.489946 33.787 0.489946H32.4643H31.8713C31.1282 0.489946 30.4551 0.928516 30.155 1.6083ZM32.9 5.2974C32.9487 5.42622 32.9951 5.55165 33.0379 5.67026C33.2453 6.24466 32.9867 6.59908 32.3772 6.56099C31.9465 6.53946 31.6618 6.10457 31.8143 5.70126L31.956 5.32645C32.2029 4.65834 32.4207 4.12095 32.4353 4.12095C32.4469 4.12095 32.5803 4.46731 32.7602 4.93457C32.8042 5.04907 32.8515 5.17172 32.9 5.2974ZM13.6528 0.649709C13.6528 0.722329 13.8997 1.34686 14.2192 2.07306C14.7275 3.23499 15.3521 4.70191 16.514 7.44695L16.5799 7.60239C16.7736 8.05923 17.0085 8.61324 17.1385 8.89936C17.2139 9.08358 17.3375 9.37401 17.4649 9.67323C17.5585 9.89297 17.6541 10.1176 17.734 10.3082C17.945 10.8181 18.4424 11.1506 18.9943 11.1506H19.8981H20.8019C21.3538 11.1506 21.8512 10.8181 22.0622 10.3082C22.251 9.85794 22.4979 9.27698 22.5996 9.0446C22.6575 8.88047 22.8053 8.53665 22.9661 8.16245C23.0472 7.97372 23.1317 7.77722 23.2096 7.59219C23.4565 7.02576 23.9213 5.92193 24.2553 5.12311C24.3537 4.88934 24.438 4.68887 24.512 4.51261L24.5148 4.50603L24.5158 4.50372C24.963 3.43951 25.038 3.26087 25.6351 1.94235C25.911 1.31781 26.1434 0.751377 26.1434 0.678757C26.1434 0.606564 26.0849 0.548041 26.0127 0.548041H24.357H23.7616C23.0331 0.548041 22.3778 0.990666 22.1058 1.66639C21.8588 2.29092 21.4231 3.35118 21.1326 4.03381C20.8422 4.71644 20.4936 5.54431 20.3629 5.87836C20.2322 6.22693 20.0869 6.50289 20.0433 6.50289C19.9998 6.50289 19.811 6.12527 19.6367 5.6605C19.5792 5.5235 19.511 5.3596 19.4386 5.18559C19.273 4.78776 19.0854 4.3369 18.954 4.03381C18.5328 3.03165 17.9664 1.63734 17.7195 1.01281C17.6147 0.733248 17.3474 0.548041 17.0488 0.548041H15.599C14.5242 0.548041 13.6528 0.591613 13.6528 0.649709ZM40.7866 9.27698V5.77669V3.93241C40.7866 2.03026 42.3413 0.495019 44.2433 0.518994L46.7632 0.550891C47.3704 0.558578 47.9683 0.701491 48.5134 0.969238C48.9636 1.1871 49.5591 1.62282 49.8496 1.94235C50.1842 2.31514 50.43 2.75878 50.5689 3.24006L50.5758 3.26403C50.8663 4.22262 50.8663 4.74549 50.5903 5.68955C50.3434 6.48837 49.8205 7.21457 49.1815 7.60672C48.9684 7.73302 48.9048 8.01225 49.0422 8.21838L49.5155 8.9284C49.909 9.50459 50.3841 10.1624 50.5855 10.4412L50.5865 10.4425L50.6048 10.468C50.7937 10.7149 50.9534 10.9618 50.9534 11.0053C50.9534 11.0489 50.082 11.0925 49.0217 11.0925H48.637C47.6691 11.0925 46.7638 10.614 46.2186 9.81437L45.6237 8.93713C45.4578 8.69248 45.1912 8.5348 44.8969 8.50721C44.6395 8.48381 44.4176 8.68646 44.4176 8.9449V9.7708C44.4176 10.5007 43.8259 11.0925 43.0959 11.0925H42.6021C41.5994 11.0925 40.7866 10.2797 40.7866 9.27698ZM46.8739 3.84396C46.715 3.58481 46.4574 3.40161 46.1605 3.33665C45.8991 3.29308 45.4052 3.24951 45.0567 3.24951C44.7037 3.24951 44.4176 3.53563 44.4176 3.88857V4.48405V4.78906C44.4176 5.30243 44.8338 5.7186 45.3471 5.7186H45.7978C46.1151 5.7186 46.4208 5.59936 46.6543 5.38454C46.8576 5.21025 47.061 4.90525 47.1045 4.70191C47.1512 4.46849 47.1081 4.22606 46.9837 4.0231L46.9012 3.88857L46.8739 3.84396ZM64.3445 9.27698V5.79121V2.30545C64.3445 1.30277 65.1574 0.489946 66.16 0.489946C67.1627 0.489946 67.9755 1.30277 67.9755 2.30545V5.79121V9.27698C67.9755 10.2797 67.1627 11.0925 66.16 11.0925C65.1574 11.0925 64.3445 10.2797 64.3445 9.27698ZM70.8774 1.92782C70.8774 2.68986 71.4952 3.30761 72.2572 3.30761H72.4025C73.2447 3.30761 73.9275 3.99038 73.9275 4.83263V7.22909V9.26246C73.9275 10.3052 74.7728 11.1506 75.8156 11.1506C76.8584 11.1506 77.7037 10.3052 77.7037 9.26246V7.22909V4.83263C77.7037 3.99038 78.3865 3.30761 79.2287 3.30761H79.374C80.136 3.30761 80.7538 2.68986 80.7538 1.92782C80.7538 1.16579 80.136 0.548041 79.374 0.548041H75.8156H72.2572C71.4952 0.548041 70.8774 1.16579 70.8774 1.92782ZM84.1408 4.70191C83.981 4.455 82.3253 1.66639 81.9041 0.954714C81.7823 0.749615 81.9301 0.489946 82.1686 0.489946H83.5017H85.0606C85.2699 0.489946 85.4692 0.579871 85.6077 0.736854C85.7384 0.882094 85.9708 1.25972 86.1451 1.57925C86.3194 1.89878 86.6244 2.42164 86.8132 2.74117C87.0165 3.0607 87.2489 3.46737 87.3215 3.64166C87.3942 3.83047 87.5249 3.97571 87.5975 3.97571C87.6701 3.97571 88.1058 3.32213 88.5561 2.50879C89.0209 1.70996 89.5001 0.925666 89.6309 0.765902C89.7773 0.5829 90.0008 0.47892 90.2351 0.484876L91.5771 0.518994L91.8716 0.526481C92.5068 0.54263 92.8897 1.23658 92.5647 1.78258C92.158 2.45069 91.824 3.03165 91.824 3.07522C91.824 3.11879 91.6787 3.35118 91.4899 3.59809C91.3157 3.845 91.0106 4.33881 90.8218 4.70191C90.6185 5.06501 90.3425 5.51526 90.1973 5.70407C90.0521 5.89288 89.9359 6.11074 89.9359 6.19789C89.9359 6.28503 89.7761 6.56099 89.5728 6.82242C89.3372 7.13341 89.2097 7.51287 89.2097 7.90302V9.18984V9.27698C89.2097 10.2797 88.3968 11.0925 87.3942 11.0925C86.3915 11.0925 85.5787 10.2797 85.5787 9.27698V9.08817V8.34175C85.5787 7.519 85.3526 6.71206 84.9251 6.00908C84.7033 5.64531 84.4869 5.28155 84.3355 5.02704L84.334 5.02449L84.3332 5.0232C84.2381 4.86328 84.1688 4.74673 84.1408 4.70191ZM91.4927 14.2442C84.7971 14.2878 58.7119 14.5492 44.7253 14.7235C38.2185 14.8107 26.3814 14.9414 18.4368 15.014L3.9854 15.1592L2.1699 15.319L0.354394 15.4788L0.165582 15.7111C-0.0668024 16.0162 -0.0522784 16.7859 0.19463 17.1345L0.397966 17.4105L6.70139 17.4686C12.4674 17.5121 23.2733 17.425 55.2552 17.0474C61.6089 16.9619 74.7675 16.8485 84.8082 16.7619L85.3926 16.7569L103.765 16.6116L104.172 16.4373C104.579 16.2776 105 15.6676 105 15.2319C105 15.1011 104.811 14.7961 104.579 14.5637L104.158 14.1426L100.178 14.1716C97.9994 14.2006 94.0925 14.2297 91.4927 14.2442ZM27.5188 24.33C26.5747 22.1223 26.0664 20.9023 26.0664 20.8006C26.0664 20.7425 26.9378 20.699 27.9981 20.699C29.1738 20.699 30.2313 21.414 30.6692 22.5052L30.8303 22.9066L31.1694 23.7439C31.5598 24.7076 31.933 25.6287 32.0794 26.0002L32.2951 26.5094C32.35 26.6389 32.5336 26.6383 32.5877 26.5086C32.6119 26.4522 32.6684 26.3165 32.7496 26.1217L32.7523 26.1152L32.7532 26.113L32.7536 26.112C32.9661 25.6022 33.3431 24.6976 33.7496 23.749C34.3015 22.4273 34.7953 21.2073 34.8534 21.0185C34.9049 20.8298 35.0762 20.699 35.2718 20.699H36.7561H38.4264C38.4985 20.699 38.5571 20.7575 38.5571 20.8297C38.5571 20.9023 38.3683 21.3671 38.1359 21.8754L38.053 22.0686L38.0519 22.0712L38.0509 22.0734C37.8236 22.6034 37.4802 23.4039 37.2499 23.9669C36.9885 24.6059 36.4656 25.8405 36.088 26.7264C35.8766 27.2141 35.6198 27.8201 35.3863 28.3712L35.3858 28.3723C35.2022 28.8054 35.0329 29.2049 34.9115 29.486C34.6501 30.1251 34.3741 30.706 34.3161 30.7786C34.258 30.8658 34.1999 31.0401 34.1999 31.1853C34.1999 31.3297 34.0828 31.4467 33.9384 31.4467H32.3117H30.685C30.5407 31.4467 30.4236 31.3297 30.4236 31.1853C30.4236 30.9789 30.3191 30.7961 30.2147 30.6134C30.1752 30.5442 30.1356 30.4751 30.1018 30.4047C29.9861 30.1639 29.8396 29.8335 29.6974 29.486C29.1891 28.2515 28.1869 25.8986 27.5188 24.33ZM40.4452 26.0728V29.6312C40.4452 30.6339 41.258 31.4467 42.2607 31.4467C43.2634 31.4467 44.0762 30.6339 44.0762 29.6312V26.0728V22.5145C44.0762 21.5118 43.2634 20.699 42.2607 20.699C41.258 20.699 40.4452 21.5118 40.4452 22.5145V26.0728ZM45.9643 29.6312V26.0728V22.2095C45.9643 21.3752 46.6406 20.699 47.4748 20.699H47.903C48.5892 20.699 49.2405 21.0019 49.6825 21.5268C50.0746 21.9771 50.5394 22.5145 50.7137 22.7178C50.888 22.9212 51.2366 23.3279 51.4835 23.6038C51.6763 23.8194 51.9845 24.2034 52.2555 24.5411C52.3312 24.6354 52.4045 24.7269 52.4711 24.8093C52.6493 25.0405 53.0192 24.9182 53.0245 24.6263L53.052 23.1099L53.0601 22.4417C53.0717 21.4758 53.858 20.699 54.824 20.699C55.7865 20.699 56.5669 21.4793 56.5669 22.4418V26.0728V29.9508C56.5669 30.777 55.8971 31.4467 55.0709 31.4467H54.4667C53.9051 31.4467 53.376 31.1833 53.0375 30.7351C52.7325 30.3429 52.3549 29.8781 52.1661 29.6893C51.9918 29.5005 51.3527 28.7598 50.7572 28.0481C50.3793 27.5996 49.6474 27.8592 49.6365 28.4456L49.6244 29.0938L49.6177 29.6314C49.6053 30.6376 48.7861 31.4467 47.7798 31.4467C46.7771 31.4467 45.9643 30.6339 45.9643 29.6312ZM58.455 26.9443C58.455 29.4309 60.4708 31.4467 62.9574 31.4467H66.0801C66.8421 31.4467 67.4599 30.829 67.4599 30.067C67.4599 29.3049 66.8421 28.6872 66.0801 28.6872H64.7729H62.8122C62.4111 28.6872 62.086 28.362 62.086 27.961C62.086 27.5599 62.4111 27.2348 62.8122 27.2348H64.3372H65.2813C66.0032 27.2348 66.5884 26.6495 66.5884 25.9276C66.5884 25.2057 66.0032 24.6204 65.2813 24.6204H64.3372H62.667C62.3461 24.6204 62.086 24.3603 62.086 24.0395C62.086 23.7186 62.3461 23.4585 62.667 23.4585H64.6277H65.7896C66.5517 23.4585 67.1694 22.8408 67.1694 22.0787C67.1694 21.3167 66.5517 20.699 65.7896 20.699H62.8122C60.4058 20.699 58.455 22.6497 58.455 25.0562V26.0728V26.9443ZM72.0204 20.9562C72.4997 20.7964 73.1097 20.6367 73.3421 20.6076C74.17 20.4914 74.9398 20.506 75.7531 20.6367C76.6536 20.7964 78.0334 21.1741 78.3384 21.3629C78.4489 21.4394 78.492 21.5821 78.4424 21.707L78.077 22.6265C77.83 23.2655 77.5686 23.861 77.496 23.9627C77.438 24.062 77.3148 24.1022 77.2095 24.0561L76.6972 23.832C76.2358 23.6301 75.7433 23.5089 75.2409 23.4735L74.9688 23.4543L74.3455 23.4111C74.0676 23.3918 73.7889 23.4364 73.5309 23.5415L73.3811 23.6003C73.2262 23.6612 73.1243 23.8107 73.1243 23.9772C73.1243 24.1425 73.2288 24.2896 73.3848 24.3441L73.7488 24.471C74.0828 24.5872 74.9543 24.8196 75.666 24.9939L76.2235 25.124C76.7199 25.2398 77.1939 25.4363 77.6267 25.7056L77.7281 25.7687C78.0904 25.9941 78.3902 26.307 78.5998 26.6787C78.8187 27.0593 78.9339 27.4907 78.9339 27.9298V28.0585V28.2141C78.9339 28.6376 78.8396 29.0557 78.6579 29.4382C78.3384 30.1354 77.525 30.8906 76.6245 31.3118C76.1843 31.5128 75.706 31.6168 75.222 31.6168H73.8505H72.36C71.9526 31.6168 71.5481 31.5481 71.1635 31.4135C70.1904 31.0795 69.348 30.6728 69.348 30.5275C69.348 30.4549 69.4642 30.179 69.6094 29.9175C69.7547 29.6561 69.9871 29.1332 70.1323 28.7411C70.2775 28.3635 70.4083 28.0585 70.4373 28.0585C70.4664 28.0585 71.0764 28.2473 71.788 28.4942L72.2685 28.6543C72.816 28.8368 73.3895 28.9299 73.9666 28.9299H74.4364C74.6956 28.9299 74.9463 28.8372 75.1431 28.6685L75.2074 28.6187C75.3497 28.5088 75.3791 28.3059 75.2738 28.1601C75.1516 28.0004 74.9783 27.8874 74.7829 27.8401L73.284 27.4775C70.9166 26.8965 70.2775 26.5189 69.7547 25.4006C69.5825 25.0372 69.4932 24.6401 69.4932 24.2379V24.166V24.1266C69.4932 23.7031 69.5875 23.2849 69.7692 22.9024C69.9144 22.5829 70.2775 22.0746 70.5826 21.7841C70.9457 21.4305 71.3848 21.1646 71.8664 21.0067L72.0204 20.9562Z" fill="url(#paint0_linear_2_157)"/>
<defs>
<linearGradient id="paint0_linear_2_157" x1="-5.90626" y1="-5.55295" x2="48.0152" y2="169.922" gradientUnits="userSpaceOnUse">
<stop stop-color="#00A9A5"/>
<stop offset="1" stop-color="#5975FF"/>
</linearGradient>
</defs>
</svg>
