<svg width="25" height="24" viewBox="0 0 25 24" fill="none" xmlns="http://www.w3.org/2000/svg">
<path d="M12.3574 3C11.5618 3 10.7987 3.31607 10.2361 3.87868C9.67349 4.44129 9.35742 5.20435 9.35742 6V10C9.35742 10.7956 9.67349 11.5587 10.2361 12.1213C10.7987 12.6839 11.5618 13 12.3574 13C13.1531 13 13.9161 12.6839 14.4787 12.1213C15.0414 11.5587 15.3574 10.7956 15.3574 10V6C15.3574 5.20435 15.0414 4.44129 14.4787 3.87868C13.9161 3.31607 13.1531 3 12.3574 3ZM12.3574 1C13.014 1 13.6642 1.12933 14.2708 1.3806C14.8775 1.63188 15.4287 2.00017 15.893 2.46447C16.3572 2.92876 16.7255 3.47995 16.9768 4.08658C17.2281 4.69321 17.3574 5.34339 17.3574 6V10C17.3574 11.3261 16.8306 12.5979 15.893 13.5355C14.9553 14.4732 13.6835 15 12.3574 15C11.0313 15 9.75957 14.4732 8.82189 13.5355C7.88421 12.5979 7.35742 11.3261 7.35742 10V6C7.35742 4.67392 7.88421 3.40215 8.82189 2.46447C9.75957 1.52678 11.0313 1 12.3574 1ZM3.41242 11H5.42742C5.66971 12.6648 6.50329 14.1867 7.77565 15.2873C9.04802 16.3879 10.6741 16.9936 12.3564 16.9936C14.0387 16.9936 15.6648 16.3879 16.9372 15.2873C18.2096 14.1867 19.0431 12.6648 19.2854 11H21.3014C21.0741 13.0287 20.164 14.9199 18.7206 16.3635C17.2772 17.8071 15.3861 18.7174 13.3574 18.945V23H11.3574V18.945C9.32856 18.7176 7.43721 17.8074 5.9936 16.3638C4.54999 14.9202 3.63983 13.0289 3.41242 11Z" fill="#424242"/>
</svg>
