<svg width="67" height="20" viewBox="0 0 67 20" fill="none" xmlns="http://www.w3.org/2000/svg">
<path d="M8.99011 0.431707C8.99011 0.477597 9.14614 0.87225 9.34805 1.33115C9.66928 2.06539 10.0639 2.99236 10.7982 4.727C10.9267 5.02987 11.101 5.44288 11.1928 5.6448C11.2754 5.84671 11.4498 6.25054 11.5691 6.53506C11.7024 6.85727 12.0168 7.06738 12.3655 7.06738H12.9366H13.5078C13.8565 7.06738 14.1708 6.85727 14.3042 6.53506C14.4235 6.25054 14.5795 5.88342 14.6437 5.73658C14.6988 5.58055 14.8824 5.16754 15.0292 4.81878C15.1852 4.46084 15.4789 3.76331 15.69 3.25852C16.1306 2.21223 16.1214 2.22141 16.5619 1.24855C16.7363 0.853894 16.8832 0.495953 16.8832 0.450063C16.8832 0.404444 16.8462 0.367462 16.8006 0.367462H15.7543H15.378C14.9177 0.367462 14.5036 0.647164 14.3317 1.07417C14.1757 1.46882 13.9003 2.13881 13.7168 2.57018C13.5332 3.00154 13.3129 3.52468 13.2303 3.73578C13.1477 3.95605 13.056 4.13043 13.0284 4.13043C13.0009 4.13043 12.8816 3.8918 12.7714 3.59811C12.6521 3.31359 12.4594 2.84551 12.3401 2.57018C12.0739 1.93689 11.716 1.05581 11.5599 0.661157C11.4937 0.484497 11.3248 0.367462 11.1361 0.367462H10.22C9.54079 0.367462 8.99011 0.394995 8.99011 0.431707Z" fill="#00A8A4"/>
<path d="M19.4181 1.03706C19.2529 1.43171 19.0234 1.95485 18.9133 2.21184C18.7206 2.63402 17.7661 4.81838 17.2429 6.0207C17.1236 6.29604 16.9859 6.59891 16.94 6.68151C16.885 6.77329 16.8483 6.88343 16.8483 6.93849C16.8483 6.98918 16.8894 7.03027 16.94 7.03027H17.9955H18.6952C18.9716 7.03027 19.2208 6.8636 19.3263 6.60809C19.4273 6.37864 19.5099 6.13083 19.5099 6.05741C19.5099 5.98644 19.5674 5.92892 19.6384 5.92892H20.8315H21.5574C21.9097 5.92892 22.2246 6.14882 22.3459 6.47959C22.4672 6.81037 22.782 7.03027 23.1343 7.03027H23.7501H24.8154C24.877 7.03027 24.9195 6.96847 24.8974 6.91096C24.8239 6.71822 24.2732 5.44248 24.0989 5.05701C24.0071 4.85509 23.6491 4.04743 23.3187 3.2673C22.9792 2.48718 22.6029 1.63362 22.4927 1.38582C22.3826 1.12884 22.2266 0.789251 22.1623 0.624047C22.0843 0.445635 21.908 0.330352 21.7132 0.330352H20.8774H20.5027C20.0331 0.330352 19.6078 0.607492 19.4181 1.03706ZM21.1527 3.36826C21.1835 3.44967 21.2128 3.52893 21.2399 3.60388C21.3709 3.96685 21.2075 4.19082 20.8223 4.16675C20.5502 4.15314 20.3703 3.87833 20.4666 3.62347L20.5562 3.38662C20.7122 2.96443 20.8499 2.62485 20.859 2.62485C20.8682 2.62485 20.9967 2.96443 21.1527 3.36826Z" fill="#00A8A4"/>
<path d="M26.1364 3.67113V5.88303C26.1364 6.51663 26.6501 7.03027 27.2837 7.03027H27.5957C28.057 7.03027 28.4309 6.65634 28.4309 6.19508V5.67318C28.4309 5.50987 28.5711 5.38181 28.7338 5.39659C28.9198 5.41403 29.0882 5.51367 29.193 5.66827L29.569 6.22261C29.9135 6.72794 30.4856 7.03027 31.0972 7.03027H31.3403C32.0103 7.03027 32.561 7.00274 32.561 6.97521C32.561 6.94767 32.46 6.79165 32.3407 6.63562C32.2214 6.47042 31.9094 6.03905 31.6524 5.66276L31.3533 5.21408C31.2664 5.08382 31.3066 4.90737 31.4413 4.82756C31.8451 4.57975 32.1755 4.12086 32.3315 3.61607C32.5059 3.0195 32.5059 2.68909 32.3224 2.08335L32.318 2.0682C32.2303 1.76407 32.0749 1.48372 31.8635 1.24815C31.6799 1.04623 31.3036 0.770895 31.0191 0.633225C30.6747 0.464031 30.2969 0.373722 29.9131 0.368865L28.3208 0.348708C27.1189 0.333558 26.1364 1.3037 26.1364 2.50571V3.67113ZM29.5323 2.12924C29.7199 2.17028 29.8827 2.28605 29.9831 2.44981L30.0003 2.478L30.0524 2.56301C30.1311 2.69126 30.1583 2.84446 30.1288 2.99196C30.1013 3.12046 29.9728 3.31319 29.8443 3.42333C29.6968 3.55908 29.5036 3.63442 29.3031 3.63442H29.0183C28.6939 3.63442 28.4309 3.37144 28.4309 3.04703V2.8543V2.478C28.4309 2.25497 28.6117 2.07417 28.8347 2.07417C29.055 2.07417 29.3671 2.1017 29.5323 2.12924Z" fill="#00A8A4"/>
<path d="M35.6081 0.211039C35.2777 0.330352 34.8372 0.559802 34.6261 0.734183C34.38 0.932254 34.1836 1.18819 34.057 1.4776L34.0197 1.56458C33.9172 1.80391 33.8643 2.06158 33.8643 2.32197C33.8735 2.84512 34.1396 3.42333 34.5159 3.69867C34.9106 3.99236 35.6448 4.2677 36.5443 4.46044C36.9389 4.54304 37.3519 4.68989 37.4621 4.78167L37.513 4.82379C37.5989 4.89471 37.605 5.02415 37.5263 5.1029C37.4437 5.1855 37.2142 5.27728 37.0032 5.30481C36.7601 5.33519 36.5138 5.32439 36.2743 5.27287L35.911 5.19468C35.5163 5.11208 35.0574 4.95605 34.883 4.86427C34.7087 4.76331 34.5435 4.71742 34.4976 4.75414C34.4609 4.79085 34.2773 5.17632 34.0937 5.59851L33.8138 6.23403C33.7799 6.311 33.8096 6.40115 33.8826 6.44288C33.9469 6.48877 34.3324 6.63562 34.7362 6.77329C35.2224 6.93739 35.7322 7.0211 36.2454 7.0211H36.6636L37.1918 7.02516C37.629 7.02852 38.061 6.9297 38.4533 6.73658C38.7837 6.58055 39.1141 6.38782 39.1967 6.32357C39.2701 6.25932 39.4445 6.03905 39.5822 5.83714C39.7437 5.59786 39.83 5.31577 39.83 5.02709V4.77249V4.6215C39.83 4.26901 39.7029 3.92833 39.472 3.66196C39.2308 3.39055 38.9282 3.18073 38.5894 3.04997L38.5818 3.04703C38.2972 2.9369 37.7466 2.79005 37.3611 2.70745C36.9848 2.62485 36.5534 2.50553 36.4066 2.43211L36.2893 2.36926C36.2059 2.32462 36.1607 2.2315 36.1771 2.13841C36.1955 2.05581 36.3056 1.9365 36.4341 1.86307C36.5839 1.78517 36.753 1.75189 36.9211 1.76717L37.1684 1.78965C37.4437 1.81718 37.9026 1.91814 38.1779 2.00992C38.4533 2.11088 38.7378 2.20266 38.802 2.22101C38.8641 2.24169 38.9315 2.21082 38.9564 2.15038L39.2334 1.4776C39.417 1.04623 39.5363 0.651581 39.5179 0.596513C39.4996 0.541446 39.1967 0.403776 38.8479 0.284462C38.4341 0.144475 38.002 0.0653043 37.5654 0.049427L37.2142 0.0366569L36.8371 0.0229411C36.4192 0.00774717 36.0023 0.0715632 35.6081 0.211039Z" fill="#00A8A4"/>
<path d="M41.0231 3.68031V5.88303C41.0231 6.51663 41.5367 7.03027 42.1703 7.03027C42.8039 7.03027 43.3176 6.51663 43.3176 5.88303V3.68031V1.4776C43.3176 0.843992 42.8039 0.330352 42.1703 0.330352C41.5367 0.330352 41.0231 0.843992 41.0231 1.4776V3.68031Z" fill="#00A8A4"/>
<path d="M45.1513 1.23937C45.1513 1.72091 45.5417 2.11128 46.0232 2.11128H46.115C46.6472 2.11128 47.0787 2.54273 47.0787 3.07496V4.58933V5.87425C47.0787 6.5332 47.6129 7.06738 48.2718 7.06738C48.9308 7.06738 49.465 6.5332 49.465 5.87425V4.58933V3.07496C49.465 2.54273 49.8964 2.11128 50.4286 2.11128H50.5204C51.002 2.11128 51.3923 1.72091 51.3923 1.23937C51.3923 0.757828 51.002 0.367462 50.5204 0.367462H48.2718H46.0232C45.5417 0.367462 45.1513 0.757828 45.1513 1.23937Z" fill="#00A8A4"/>
<path d="M52.1192 0.624047C52.3854 1.07377 53.4317 2.83594 53.5326 2.99196C53.5785 3.06539 53.7988 3.44169 54.0282 3.81798C54.2984 4.26221 54.4412 4.77213 54.4412 5.29204V5.76371V5.88303C54.4412 6.51663 54.9549 7.03027 55.5885 7.03027C56.2221 7.03027 56.7357 6.51663 56.7357 5.88303V5.82796V5.01479C56.7357 4.76825 56.8163 4.52847 56.9652 4.33195C57.0937 4.16675 57.1946 3.99236 57.1946 3.9373C57.1946 3.88223 57.268 3.74456 57.3598 3.62524C57.4516 3.50593 57.626 3.22141 57.7545 2.99196C57.8738 2.76252 58.0665 2.45046 58.1767 2.29444C58.296 2.13841 58.3878 1.99157 58.3878 1.96403C58.3878 1.9365 58.5989 1.56938 58.8558 1.14719C59.0612 0.802165 58.8192 0.363644 58.4178 0.353439L58.2317 0.348708L57.3837 0.327148C57.2357 0.323385 57.0944 0.389092 57.0019 0.504734C56.9193 0.605691 56.6164 1.1013 56.3227 1.60609C56.0382 2.12006 55.7629 2.53307 55.717 2.53307C55.6711 2.53307 55.5885 2.44129 55.5426 2.32197C55.4967 2.21184 55.3499 1.95485 55.2214 1.75294C55.102 1.55102 54.9093 1.22062 54.7992 1.0187C54.689 0.816785 54.5422 0.578157 54.4596 0.486378C54.3721 0.387177 54.2461 0.330352 54.1138 0.330352H53.1288H52.2864C52.1357 0.330352 52.0423 0.494442 52.1192 0.624047Z" fill="#00A8A4"/>
<path d="M58.1794 9.02242C53.9483 9.04995 37.4647 9.21516 28.6263 9.32529C24.5146 9.38036 17.0345 9.46296 12.0142 9.50885L2.88209 9.60063L1.73484 9.70159L0.587595 9.80255L0.468281 9.9494C0.321434 10.1421 0.330612 10.6286 0.486637 10.8488L0.615129 11.0232L4.59837 11.0599C8.24203 11.0875 15.0704 11.0324 35.2803 10.7938C39.3737 10.7387 47.9368 10.6653 54.3246 10.6102L65.9348 10.5184L66.1918 10.4083C66.4487 10.3073 66.7149 9.92186 66.7149 9.64652C66.7149 9.56392 66.5956 9.37118 66.4487 9.22434L66.1826 8.95817L63.6678 8.97653C62.2911 8.99489 59.8222 9.01324 58.1794 9.02242Z" fill="#00A8A4"/>
<path d="M16.8363 13.1651C16.8363 13.2294 17.1575 14.0003 17.7541 15.3954C18.1763 16.3866 18.8096 17.8734 19.1308 18.6536C19.2206 18.8732 19.3132 19.0819 19.3863 19.2341C19.4642 19.3961 19.5897 19.5476 19.5897 19.7274C19.5897 19.8186 19.6637 19.8926 19.7549 19.8926H20.7828H21.8108C21.902 19.8926 21.976 19.8186 21.976 19.7274C21.976 19.6356 22.0127 19.5255 22.0494 19.4704C22.0861 19.4245 22.2605 19.0574 22.4257 18.6536C22.6001 18.2497 22.9305 17.4604 23.1691 16.9097C23.4077 16.3499 23.7381 15.5698 23.9033 15.1659C24.0685 14.7621 24.3255 14.1655 24.4632 13.8443C24.61 13.5231 24.7294 13.2294 24.7294 13.1835C24.7294 13.1379 24.6924 13.1009 24.6468 13.1009H23.5913H22.6533C22.5298 13.1009 22.4215 13.1836 22.389 13.3028C22.3523 13.4221 22.0402 14.1931 21.6915 15.0283C21.3335 15.8634 21.0123 16.6436 20.9572 16.7721C20.923 16.8541 20.807 16.8544 20.7723 16.7726L20.636 16.4508C20.5167 16.148 20.1587 15.2669 19.8467 14.4959L19.7449 14.2422C19.4682 13.5528 18.7999 13.1009 18.057 13.1009C17.387 13.1009 16.8363 13.1284 16.8363 13.1651Z" fill="#00A8A4"/>
<path d="M25.9225 16.4967V18.7453C25.9225 19.3789 26.4361 19.8926 27.0697 19.8926C27.7033 19.8926 28.217 19.3789 28.217 18.7453V16.4967V14.2481C28.217 13.6145 27.7033 13.1009 27.0697 13.1009C26.4361 13.1009 25.9225 13.6145 25.9225 14.2481V16.4967Z" fill="#00A8A4"/>
<path d="M29.4102 16.4967V18.7453C29.4102 19.3789 29.9238 19.8926 30.5574 19.8926C31.1933 19.8926 31.711 19.3813 31.7188 18.7454L31.723 18.4057L31.7306 17.9961C31.7375 17.6256 32.2001 17.4615 32.4389 17.7449C32.8152 18.1947 33.219 18.6627 33.3292 18.782C33.4485 18.9014 33.6871 19.1951 33.8798 19.4429C34.0937 19.7261 34.428 19.8926 34.7829 19.8926H35.1647C35.6868 19.8926 36.1101 19.4693 36.1101 18.9472V16.4967V14.2022C36.1101 13.594 35.617 13.1009 35.0087 13.1009C34.3983 13.1009 33.9014 13.5918 33.8941 14.2022L33.889 14.6244L33.8716 15.5826C33.8682 15.7671 33.6345 15.8443 33.5219 15.6982C33.3292 15.4596 33.0538 15.1109 32.8978 14.9365C32.7418 14.7621 32.5215 14.5051 32.4114 14.3766C32.3012 14.2481 32.0075 13.9085 31.7597 13.624C31.4804 13.2923 31.0689 13.1009 30.6352 13.1009H30.3647C29.8375 13.1009 29.4102 13.5282 29.4102 14.0554V16.4967Z" fill="#00A8A4"/>
<path d="M37.3032 16.4967V17.0474C37.3032 18.6188 38.577 19.8926 40.1483 19.8926H42.1216C42.6031 19.8926 42.9935 19.5022 42.9935 19.0207C42.9935 18.5391 42.6031 18.1488 42.1216 18.1488H41.2956H40.0566C39.8031 18.1488 39.5977 17.9433 39.5977 17.6899C39.5977 17.4364 39.8031 17.231 40.0566 17.231H41.0202H41.6168C42.073 17.231 42.4428 16.8611 42.4428 16.4049C42.4428 15.9488 42.073 15.5789 41.6168 15.5789H41.0202H39.9648C39.762 15.5789 39.5977 15.4146 39.5977 15.2118C39.5977 15.0091 39.762 14.8447 39.9648 14.8447H41.2038H41.938C42.4196 14.8447 42.8099 14.4543 42.8099 13.9728C42.8099 13.4912 42.4196 13.1009 41.938 13.1009H40.0566C38.5359 13.1009 37.3032 14.3336 37.3032 15.8543V16.4967Z" fill="#00A8A4"/>
<path d="M46.7106 13.0431C46.5637 13.0615 46.1783 13.1624 45.8754 13.2634L45.7781 13.2953C45.4737 13.3951 45.1962 13.5631 44.9668 13.7865C44.774 13.9701 44.5446 14.2913 44.4528 14.4932C44.338 14.7349 44.2784 14.9992 44.2784 15.2668V15.2917V15.3372C44.2784 15.5913 44.3349 15.8422 44.4436 16.0718C44.774 16.7785 45.1779 17.0172 46.6739 17.3843L47.621 17.6134C47.7446 17.6433 47.8541 17.7147 47.9313 17.8156C47.9978 17.9077 47.9792 18.036 47.8893 18.1054L47.8487 18.1369C47.7243 18.2435 47.5659 18.3021 47.4021 18.3021H47.1052C46.7405 18.3021 46.3782 18.2433 46.0321 18.1279L45.7285 18.0267C45.2788 17.8707 44.8933 17.7514 44.875 17.7514C44.8566 17.7514 44.774 17.9441 44.6823 18.1828C44.5905 18.4306 44.4436 18.761 44.3518 18.9262C44.2601 19.0914 44.1866 19.2658 44.1866 19.3117C44.1866 19.4034 44.719 19.6604 45.3339 19.8715C45.5769 19.9566 45.8325 20 46.09 20H47.0318H47.8985C48.2043 20 48.5066 19.9343 48.7848 19.8073C49.3538 19.5411 49.8678 19.0638 50.0697 18.6233C50.1845 18.3816 50.2441 18.1174 50.2441 17.8498V17.7514V17.6701C50.2441 17.3926 50.1713 17.12 50.033 16.8795C49.9005 16.6446 49.7111 16.4469 49.4822 16.3044L49.4181 16.2646C49.1446 16.0944 48.8451 15.9702 48.5314 15.897L48.1791 15.8148C47.7293 15.7047 47.1787 15.5579 46.9676 15.4844L46.7376 15.4042C46.639 15.3698 46.5729 15.2768 46.5729 15.1724C46.5729 15.0672 46.6373 14.9727 46.7352 14.9342L46.8299 14.897C46.9929 14.8306 47.169 14.8024 47.3446 14.8146L47.7385 14.842L47.9105 14.8541C48.2279 14.8764 48.5392 14.9531 48.8307 15.0806L49.1544 15.2222C49.221 15.2514 49.2989 15.226 49.3355 15.1632C49.3814 15.099 49.5466 14.7227 49.7026 14.3188L49.9335 13.7378C49.9649 13.6589 49.9377 13.5687 49.8678 13.5203C49.6751 13.401 48.8032 13.1624 48.2341 13.0615C47.7202 12.9788 47.2337 12.9697 46.7106 13.0431Z" fill="#00A8A4"/>
</svg>
