<svg width="18" height="21" viewBox="0 0 18 21" fill="none" xmlns="http://www.w3.org/2000/svg">
<path d="M3 7.1H3.1V7V6C3.1 4.43522 3.72161 2.93453 4.82807 1.82807C5.93454 0.721605 7.43522 0.1 9 0.1C10.5648 0.1 12.0655 0.721605 13.1719 1.82807C14.2784 2.93453 14.9 4.43522 14.9 6V7V7.1H15H17C17.2387 7.1 17.4676 7.19482 17.6364 7.3636C17.8052 7.53239 17.9 7.76131 17.9 8V20C17.9 20.2387 17.8052 20.4676 17.6364 20.6364C17.4676 20.8052 17.2387 20.9 17 20.9H1C0.761305 20.9 0.532386 20.8052 0.363604 20.6364C0.194821 20.4676 0.1 20.2387 0.1 20V8C0.1 7.76131 0.194821 7.53239 0.363604 7.3636C0.532387 7.19482 0.761305 7.1 1 7.1H3ZM16.1 9V8.9H16H2H1.9V9V19V19.1H2H16H16.1V19V9ZM8.1 14.732V14.6743L8.05 14.6454C7.68778 14.4363 7.40469 14.1135 7.24463 13.727C7.08457 13.3406 7.05649 12.9122 7.16474 12.5082C7.27299 12.1042 7.51153 11.7472 7.84335 11.4926C8.17518 11.238 8.58175 11.0999 9 11.0999C9.41825 11.0999 9.82482 11.238 10.1566 11.4926C10.4885 11.7472 10.727 12.1042 10.8353 12.5082C10.9435 12.9122 10.9154 13.3406 10.7554 13.727C10.5953 14.1135 10.3122 14.4363 9.95 14.6454L9.9 14.6743V14.732V16.9H8.1V14.732ZM4.9 7V7.1H5H13H13.1V7V6C13.1 4.91261 12.668 3.86976 11.8991 3.10086C11.1302 2.33196 10.0874 1.9 9 1.9C7.91261 1.9 6.86976 2.33196 6.10086 3.10086C5.33196 3.86976 4.9 4.91261 4.9 6V7Z" fill="#424242" stroke="white" stroke-width="0.2"/>
</svg>
