<svg width="22" height="16" viewBox="0 0 22 16" fill="none" xmlns="http://www.w3.org/2000/svg">
<path d="M15 0C15.552 0 16 0.448 16 1V5.2L21.213 1.55C21.439 1.392 21.751 1.447 21.91 1.674C21.968 1.758 22 1.858 22 1.96V14.04C22 14.316 21.776 14.54 21.5 14.54C21.397 14.54 21.297 14.508 21.213 14.45L16 10.8V15C16 15.552 15.552 16 15 16H1C0.448 16 0 15.552 0 15V1C0 0.448 0.448 0 1 0H15ZM14 2H2V14H14V2ZM7 4H9V7H12V9H8.999L9 12H7L6.999 9H4V7H7V4ZM20 4.841L16 7.641V8.359L20 11.159V4.84V4.841Z" fill="#424242"/>
</svg>
