<svg width="19" height="19" viewBox="0 0 19 19" fill="none" xmlns="http://www.w3.org/2000/svg">
<path d="M14.5623 13.1173L18.3574 16.9116L17.1036 18.1654L13.3094 14.3703C11.8976 15.502 10.1416 16.1175 8.33222 16.115C3.93013 16.115 0.357422 12.5423 0.357422 8.14018C0.357422 3.73809 3.93013 0.16538 8.33222 0.16538C12.7343 0.16538 16.307 3.73809 16.307 8.14018C16.3096 9.94957 15.694 11.7056 14.5623 13.1173ZM12.7848 12.4599C13.9094 11.3034 14.5374 9.75324 14.5348 8.14018C14.5348 4.71279 11.7587 1.93756 8.33222 1.93756C4.90483 1.93756 2.1296 4.71279 2.1296 8.14018C2.1296 11.5667 4.90483 14.3428 8.33222 14.3428C9.94528 14.3453 11.4955 13.7173 12.6519 12.5928L12.7848 12.4599Z" fill="#A6A6A6"/>
</svg>
