<svg width="18" height="22" viewBox="0 0 18 22" fill="none" xmlns="http://www.w3.org/2000/svg">
<path d="M9 21.5L4.368 19.0303C3.0475 18.3277 1.94323 17.2789 1.1737 15.9963C0.40416 14.7137 -0.0015848 13.2457 4.65193e-06 11.75V2C0.000401759 1.6023 0.158565 1.221 0.439783 0.939778C0.721002 0.65856 1.1023 0.500397 1.5 0.5H16.5C16.8977 0.500397 17.279 0.65856 17.5602 0.939778C17.8414 1.221 17.9996 1.6023 18 2V11.75C18.0016 13.2457 17.5958 14.7137 16.8263 15.9963C16.0568 17.2789 14.9525 18.3277 13.632 19.0303L9 21.5ZM1.5 2V11.75C1.49876 12.9739 1.83083 14.1749 2.46058 15.2243C3.09032 16.2737 3.99396 17.1318 5.0745 17.7065L9 19.7997L12.9255 17.7073C14.0062 17.1325 14.9099 16.2743 15.5396 15.2248C16.1694 14.1752 16.5014 12.974 16.5 11.75V2H1.5Z" fill="#424242"/>
</svg>
