<svg width="82" height="21" viewBox="0 0 82 21" fill="none" xmlns="http://www.w3.org/2000/svg">
<path d="M8.65483 5.63778C8.59801 5.06487 8.35417 4.61979 7.9233 4.30256C7.49242 3.98532 6.90767 3.8267 6.16903 3.8267C5.66714 3.8267 5.24337 3.89773 4.89773 4.03977C4.55208 4.17708 4.28693 4.36884 4.10227 4.61506C3.92235 4.86127 3.83239 5.14062 3.83239 5.45312C3.82292 5.71354 3.87737 5.94081 3.99574 6.13494C4.11884 6.32907 4.28693 6.49716 4.5 6.6392C4.71307 6.77651 4.95928 6.89725 5.23864 7.00142C5.51799 7.10085 5.81629 7.18608 6.13352 7.2571L7.44034 7.5696C8.07481 7.71165 8.6572 7.90104 9.1875 8.13778C9.7178 8.37453 10.1771 8.66572 10.5653 9.01136C10.9536 9.35701 11.2543 9.7642 11.4673 10.233C11.6851 10.7017 11.7964 11.2391 11.8011 11.8452C11.7964 12.7353 11.5691 13.5071 11.1193 14.1605C10.6742 14.8092 10.0303 15.3134 9.1875 15.6733C8.34943 16.0284 7.33854 16.206 6.15483 16.206C4.98059 16.206 3.95786 16.026 3.08665 15.6662C2.22017 15.3063 1.54309 14.7737 1.0554 14.0682C0.572443 13.358 0.319129 12.4796 0.295455 11.4332H3.27131C3.30445 11.9209 3.44413 12.3281 3.69034 12.6548C3.94129 12.9768 4.27509 13.2206 4.69176 13.3864C5.11316 13.5473 5.58902 13.6278 6.11932 13.6278C6.64015 13.6278 7.09233 13.5521 7.47585 13.4006C7.86411 13.2491 8.16477 13.0384 8.37784 12.7685C8.59091 12.4986 8.69744 12.1884 8.69744 11.8381C8.69744 11.5114 8.60038 11.2367 8.40625 11.0142C8.21686 10.7917 7.9375 10.6023 7.56818 10.446C7.2036 10.2898 6.75616 10.1477 6.22585 10.0199L4.64205 9.62216C3.41572 9.32386 2.44744 8.85748 1.73722 8.22301C1.02699 7.58854 0.674242 6.7339 0.678977 5.65909C0.674242 4.77841 0.908617 4.009 1.3821 3.35085C1.86032 2.69271 2.5161 2.17898 3.34943 1.80966C4.18277 1.44034 5.12973 1.25568 6.19034 1.25568C7.26989 1.25568 8.21212 1.44034 9.01705 1.80966C9.82671 2.17898 10.4564 2.69271 10.9062 3.35085C11.3561 4.009 11.5881 4.77131 11.6023 5.63778H8.65483ZM18.7844 16.2131C17.6623 16.2131 16.6964 15.9858 15.8867 15.5312C15.0818 15.072 14.4615 14.4233 14.0259 13.5852C13.5903 12.7424 13.3725 11.7457 13.3725 10.5952C13.3725 9.47301 13.5903 8.48816 14.0259 7.64062C14.4615 6.79309 15.0747 6.13258 15.8654 5.65909C16.6609 5.18561 17.5936 4.94886 18.6637 4.94886C19.3834 4.94886 20.0534 5.06487 20.6737 5.29688C21.2987 5.52415 21.8432 5.86742 22.3072 6.3267C22.7759 6.78598 23.1405 7.36364 23.4009 8.05966C23.6613 8.75095 23.7915 9.56061 23.7915 10.4886V11.3196H14.5799V9.4446H20.9435C20.9435 9.009 20.8488 8.62311 20.6594 8.28693C20.4701 7.95076 20.2073 7.68797 19.8711 7.49858C19.5397 7.30445 19.1538 7.20739 18.7134 7.20739C18.2541 7.20739 17.8469 7.31392 17.4918 7.52699C17.1415 7.73532 16.8668 8.01705 16.668 8.37216C16.4691 8.72254 16.3673 9.11316 16.3626 9.54403V11.3267C16.3626 11.8665 16.462 12.3329 16.6609 12.7259C16.8645 13.1188 17.1509 13.4219 17.5202 13.6349C17.8896 13.848 18.3275 13.9545 18.8342 13.9545C19.1703 13.9545 19.4781 13.9072 19.7575 13.8125C20.0368 13.7178 20.2759 13.5758 20.4748 13.3864C20.6737 13.197 20.8252 12.965 20.9293 12.6903L23.7276 12.875C23.5856 13.5473 23.2944 14.1345 22.854 14.6364C22.4184 15.1335 21.855 15.5218 21.1637 15.8011C20.4772 16.0758 19.6841 16.2131 18.7844 16.2131ZM31.5685 5.09091V7.36364H24.9989V5.09091H31.5685ZM26.4904 2.47727H29.516V12.6477C29.516 12.9271 29.5586 13.1449 29.6438 13.3011C29.729 13.4527 29.8474 13.5592 29.9989 13.6207C30.1552 13.6823 30.3351 13.7131 30.5387 13.7131C30.6808 13.7131 30.8228 13.7012 30.9648 13.6776C31.1069 13.6491 31.2158 13.6278 31.2915 13.6136L31.7674 15.8651C31.6159 15.9124 31.4028 15.9669 31.1282 16.0284C30.8536 16.0947 30.5198 16.1349 30.1268 16.1491C29.3976 16.1776 28.7584 16.0805 28.2092 15.858C27.6647 15.6354 27.2409 15.2898 26.9379 14.821C26.6348 14.3523 26.4857 13.7604 26.4904 13.0455V2.47727ZM39.342 5.09091V7.36364H32.7724V5.09091H39.342ZM34.2638 2.47727H37.2894V12.6477C37.2894 12.9271 37.332 13.1449 37.4173 13.3011C37.5025 13.4527 37.6209 13.5592 37.7724 13.6207C37.9286 13.6823 38.1085 13.7131 38.3121 13.7131C38.4542 13.7131 38.5962 13.7012 38.7383 13.6776C38.8803 13.6491 38.9892 13.6278 39.065 13.6136L39.5408 15.8651C39.3893 15.9124 39.1763 15.9669 38.9016 16.0284C38.627 16.0947 38.2932 16.1349 37.9002 16.1491C37.171 16.1776 36.5318 16.0805 35.9826 15.858C35.4381 15.6354 35.0143 15.2898 34.7113 14.821C34.4083 14.3523 34.2591 13.7604 34.2638 13.0455V2.47727ZM41.3129 16V5.09091H44.3384V16H41.3129ZM42.8327 3.68466C42.3829 3.68466 41.997 3.53551 41.6751 3.23722C41.3578 2.93419 41.1992 2.57197 41.1992 2.15057C41.1992 1.7339 41.3578 1.37642 41.6751 1.07812C41.997 0.775094 42.3829 0.623579 42.8327 0.623579C43.2826 0.623579 43.6661 0.775094 43.9833 1.07812C44.3053 1.37642 44.4663 1.7339 44.4663 2.15057C44.4663 2.57197 44.3053 2.93419 43.9833 3.23722C43.6661 3.53551 43.2826 3.68466 42.8327 3.68466ZM49.7876 9.69318V16H46.7621V5.09091H49.6456V7.01562H49.7734C50.0149 6.38116 50.4197 5.87926 50.9879 5.50994C51.5561 5.13589 52.245 4.94886 53.0547 4.94886C53.8123 4.94886 54.4728 5.11458 55.0362 5.44602C55.5997 5.77746 56.0376 6.25095 56.3501 6.86648C56.6626 7.47727 56.8189 8.20644 56.8189 9.05398V16H53.7933V9.59375C53.7981 8.92614 53.6276 8.4053 53.282 8.03125C52.9363 7.65246 52.4605 7.46307 51.8544 7.46307C51.4472 7.46307 51.0874 7.55066 50.7749 7.72585C50.4671 7.90104 50.2256 8.15672 50.0504 8.4929C49.88 8.82434 49.7924 9.22443 49.7876 9.69318ZM64.1183 20.3182C63.1381 20.3182 62.2977 20.1832 61.5969 19.9134C60.9009 19.6482 60.3469 19.286 59.935 18.8267C59.5231 18.3674 59.2556 17.8513 59.1325 17.2784L61.9308 16.902C62.016 17.1198 62.1509 17.3234 62.3356 17.5128C62.5202 17.7022 62.7641 17.8537 63.0671 17.9673C63.3749 18.0857 63.7489 18.1449 64.1893 18.1449C64.8474 18.1449 65.3896 17.9839 65.8157 17.6619C66.2466 17.3447 66.462 16.812 66.462 16.0639V14.0682H66.3342C66.2016 14.3712 66.0027 14.6577 65.7376 14.9276C65.4724 15.1974 65.1315 15.4176 64.7148 15.5881C64.2982 15.7585 63.801 15.8438 63.2234 15.8438C62.4042 15.8438 61.6585 15.6544 60.9862 15.2756C60.3185 14.892 59.7859 14.3073 59.3881 13.5213C58.9951 12.7306 58.7987 11.7315 58.7987 10.5241C58.7987 9.28835 58.9999 8.25616 59.4023 7.42756C59.8048 6.59896 60.3398 5.97869 61.0075 5.56676C61.6798 5.15483 62.4161 4.94886 63.2163 4.94886C63.8271 4.94886 64.3384 5.05303 64.7504 5.26136C65.1623 5.46496 65.4937 5.72064 65.7447 6.02841C66.0004 6.33144 66.1969 6.62973 66.3342 6.9233H66.4478V5.09091H69.4521V16.1065C69.4521 17.0346 69.2248 17.8111 68.7702 18.4361C68.3157 19.0611 67.686 19.5298 66.881 19.8423C66.0808 20.1596 65.1599 20.3182 64.1183 20.3182ZM64.1822 13.571C64.6699 13.571 65.0818 13.4503 65.418 13.2088C65.7589 12.9626 66.0193 12.6122 66.1992 12.1577C66.3839 11.6984 66.4762 11.1491 66.4762 10.5099C66.4762 9.87074 66.3862 9.31676 66.2063 8.84801C66.0264 8.37453 65.766 8.00758 65.4251 7.74716C65.0842 7.48674 64.6699 7.35653 64.1822 7.35653C63.685 7.35653 63.266 7.49148 62.9251 7.76136C62.5842 8.02651 62.3261 8.39583 62.1509 8.86932C61.9757 9.3428 61.8881 9.88968 61.8881 10.5099C61.8881 11.1397 61.9757 11.6842 62.1509 12.1435C62.3308 12.598 62.5889 12.9508 62.9251 13.2017C63.266 13.4479 63.685 13.571 64.1822 13.571ZM80.9364 8.2017L78.1665 8.37216C78.1192 8.13542 78.0174 7.92235 77.8612 7.73295C77.7049 7.53883 77.4989 7.38494 77.2433 7.27131C76.9923 7.15294 76.6916 7.09375 76.3413 7.09375C75.8725 7.09375 75.4772 7.19318 75.1552 7.39205C74.8332 7.58617 74.6722 7.84659 74.6722 8.1733C74.6722 8.43371 74.7764 8.65388 74.9847 8.83381C75.1931 9.01373 75.5505 9.15814 76.0572 9.26705L78.0316 9.66477C79.0922 9.88258 79.8829 10.233 80.4038 10.7159C80.9246 11.1989 81.185 11.8333 81.185 12.6193C81.185 13.3343 80.9743 13.9616 80.5529 14.5014C80.1362 15.0412 79.5633 15.4626 78.8342 15.7656C78.1097 16.0639 77.274 16.2131 76.3271 16.2131C74.8829 16.2131 73.7324 15.9124 72.8754 15.3111C72.0231 14.705 71.5236 13.8812 71.3768 12.8395L74.3526 12.6832C74.4426 13.1236 74.6604 13.4598 75.006 13.6918C75.3517 13.919 75.7944 14.0327 76.3342 14.0327C76.8645 14.0327 77.2906 13.9309 77.6126 13.7273C77.9393 13.5189 78.105 13.2514 78.1097 12.9247C78.105 12.6501 77.989 12.4252 77.7617 12.25C77.5344 12.0701 77.1841 11.9328 76.7106 11.8381L74.8214 11.4616C73.756 11.2486 72.9629 10.8793 72.4421 10.3537C71.926 9.82812 71.668 9.15814 71.668 8.34375C71.668 7.64299 71.8574 7.0393 72.2362 6.53267C72.6197 6.02604 73.1571 5.63542 73.8484 5.3608C74.5444 5.08617 75.3588 4.94886 76.2915 4.94886C77.6694 4.94886 78.7537 5.24006 79.5444 5.82244C80.3398 6.40483 80.8039 7.19792 80.9364 8.2017Z" fill="#737171"/>
</svg>
